<svg width="24" height="24" viewBox="0 0 24 24" fill="none" xmlns="http://www.w3.org/2000/svg">
<g clip-path="url(#clip0_3_5)">
<path d="M24 11.247C23.8554 8.90702 23.0292 6.66051 21.6232 4.78442C20.2172 2.90834 18.293 1.48469 16.0877 0.688994C13.8824 -0.106704 11.4925 -0.239667 9.21256 0.306495C6.93262 0.852657 4.86234 2.05407 3.25695 3.76262C1.65156 5.47117 0.58124 7.61216 0.177941 9.92166C-0.225357 12.2312 0.055996 14.6082 0.987316 16.7597C1.91864 18.9112 3.45921 20.7432 5.41911 22.0297C7.37901 23.3163 9.67256 24.0012 12.017 24H19C20.3257 23.9987 21.5967 23.4715 22.5341 22.5341C23.4715 21.5967 23.9987 20.3257 24 19V11.247ZM22 19C22 19.7956 21.6839 20.5587 21.1213 21.1213C20.5587 21.6839 19.7957 22 19 22H12.017C10.6059 21.9994 9.21084 21.7013 7.9227 21.1253C6.63455 20.5493 5.48227 19.7082 4.541 18.657C3.59517 17.6063 2.88493 16.3655 2.45789 15.0178C2.03086 13.6701 1.8969 12.2467 2.065 10.843C2.33044 8.62894 3.32519 6.56619 4.89244 4.97992C6.45969 3.39366 8.5103 2.37411 10.721 2.082C11.1522 2.02795 11.5864 2.00056 12.021 2C14.3515 1.99364 16.6098 2.8079 18.4 4.3C19.4455 5.16894 20.3037 6.24115 20.9225 7.45163C21.5413 8.66211 21.9079 9.98564 22 11.342V19Z" fill="white"/>
<path d="M8 9H12C12.2652 9 12.5196 8.89464 12.7071 8.70711C12.8946 8.51957 13 8.26522 13 8C13 7.73478 12.8946 7.48043 12.7071 7.29289C12.5196 7.10536 12.2652 7 12 7H8C7.73478 7 7.48043 7.10536 7.29289 7.29289C7.10536 7.48043 7 7.73478 7 8C7 8.26522 7.10536 8.51957 7.29289 8.70711C7.48043 8.89464 7.73478 9 8 9Z" fill="white"/>
<path d="M16 11H8C7.73478 11 7.48043 11.1054 7.29289 11.2929C7.10536 11.4804 7 11.7348 7 12C7 12.2652 7.10536 12.5196 7.29289 12.7071C7.48043 12.8946 7.73478 13 8 13H16C16.2652 13 16.5196 12.8946 16.7071 12.7071C16.8946 12.5196 17 12.2652 17 12C17 11.7348 16.8946 11.4804 16.7071 11.2929C16.5196 11.1054 16.2652 11 16 11Z" fill="white"/>
<path d="M16 15H8C7.73478 15 7.48043 15.1054 7.29289 15.2929C7.10536 15.4804 7 15.7348 7 16C7 16.2652 7.10536 16.5196 7.29289 16.7071C7.48043 16.8946 7.73478 17 8 17H16C16.2652 17 16.5196 16.8946 16.7071 16.7071C16.8946 16.5196 17 16.2652 17 16C17 15.7348 16.8946 15.4804 16.7071 15.2929C16.5196 15.1054 16.2652 15 16 15Z" fill="white"/>
</g>
<defs>
<clipPath id="clip0_3_5">
<rect width="24" height="24" fill="white"/>
</clipPath>
</defs>
</svg>
