<svg width="262" height="262" viewBox="0 0 262 262" fill="none" xmlns="http://www.w3.org/2000/svg">
<path fill-rule="evenodd" clip-rule="evenodd" d="M0.767815 143.358L48.7109 143.358C53.2967 162.13 56.215 170.473 65.3867 182.153C72.057 190.914 82.8963 201.76 95.8201 206.349L95.8201 232.212C80.8118 228.041 63.3022 215.109 54.9643 206.766C49.9616 201.76 44.9588 195.085 40.7899 188.411C24.5309 163.381 42.0405 167.136 5.77049 167.136C10.7732 192.165 29.9505 215.109 46.6264 230.961C59.1333 242.641 94.9863 262.248 119.583 261.414L119.583 189.662C84.9808 180.068 68.7218 155.038 72.8908 119.162L25.3647 119.162C24.9478 99.9731 39.956 73.275 48.294 63.2632C58.2995 51.5827 74.5584 36.1478 95.8201 29.8905L95.8201 55.7543C87.8991 58.6744 77.0597 67.0176 72.4739 71.6063C67.0542 77.0294 60.8008 86.2069 56.6319 94.5501L84.564 94.9672C89.9836 84.1211 107.076 75.7779 119.583 72.0235L119.583 0.272195C104.992 -0.144967 80.8119 8.61536 69.9726 14.8727C52.8799 24.4674 44.5419 31.9762 33.2857 44.0739C12.4409 67.0176 -1.31666 101.642 0.767815 143.358Z" fill="#FF0000"/>
<path fill-rule="evenodd" clip-rule="evenodd" d="M143.47 72.7283C160.147 77.3185 171.404 84.8297 178.909 95.262C189.332 109.45 192.251 121.969 189.749 143.25L237.279 143.25C238.53 175.799 203.508 222.118 166.818 232.133L166.818 206.261C174.739 203.34 185.58 194.994 190.166 190.404C195.586 184.979 201.84 175.799 206.009 167.453L178.075 167.036C172.655 177.885 155.561 186.231 143.053 189.987L143.053 261.761C157.645 262.178 181.827 253.415 192.667 247.155C238.113 222.118 264.797 177.885 261.461 119.465L213.514 119.465C208.928 101.521 206.426 92.7583 196.837 80.6568C190.166 71.8938 179.326 61.0442 166.401 56.4541L166.401 30.5821C181.41 34.755 199.338 48.1082 207.26 56.0368C214.765 63.548 222.687 74.8148 227.69 85.247C233.944 98.6003 226.856 95.6793 256.875 95.6793C254.79 83.9952 246.035 67.7209 240.615 59.3751C231.859 46.4391 226.022 41.0143 216.016 31.4167C203.925 19.7326 168.069 0.119931 143.053 0.954506L143.47 72.7283Z" fill="#FF0000"/>
<path fill-rule="evenodd" clip-rule="evenodd" d="M138.556 166.132C92.2769 174.891 78.1014 105.235 125.214 96.059C146.06 92.3051 163.154 107.321 166.49 124.005C170.659 145.277 155.65 162.795 138.556 166.132ZM128.886 119.793C128.368 119.914 127.839 120.066 127.299 120.251C113.123 124.839 120.211 147.779 135.637 142.357C146.971 138.578 144.725 122.345 134.725 119.771L134.614 106.551L128.775 106.6L128.886 119.793ZM144.205 109.224C151.712 113.81 156.717 121.731 157.134 131.32C157.134 145.495 145.873 157.168 131.693 157.168C117.514 157.168 105.836 145.912 105.836 131.737C105.836 122.565 110.841 114.227 118.348 109.641L118.348 114.227C113.343 118.396 110.007 124.649 110.007 131.737C110.007 143.827 120.016 153.416 131.693 152.999C143.788 152.999 153.38 142.993 152.963 131.32C152.963 124.232 149.627 117.979 144.205 114.227L144.205 109.224Z" fill="#FF0000"/>
</svg>
