<?xml version="1.0" encoding="UTF-8"?>
<!DOCTYPE svg PUBLIC "-//W3C//DTD SVG 1.0//EN" "http://www.w3.org/TR/2001/REC-SVG-20010904/DTD/svg10.dtd">
<!-- Creator: CorelDRAW 2019 (64-Bit) -->
<svg xmlns="http://www.w3.org/2000/svg" xml:space="preserve" width="68.2102mm" height="67.9336mm" version="1.0" style="shape-rendering:geometricPrecision; text-rendering:geometricPrecision; image-rendering:optimizeQuality; fill-rule:evenodd; clip-rule:evenodd"
viewBox="0 0 406574 404925"
 xmlns:xlink="http://www.w3.org/1999/xlink"
 xmlns:xodm="http://www.corel.com/coreldraw/odm/2003">
 <defs>
  <style type="text/css">
   <![CDATA[
    .fil0 {fill:#FEFEFE}
   ]]>
  </style>
 </defs>
 <g id="Слой_x0020_1">
  <metadata id="CorelCorpID_0Corel-Layer"/>
  <path class="fil0" d="M383 221467c1791,294 4901,28 6956,91 769,23 1529,-46 2317,-75 906,-35 1470,80 2319,57l4635 -29c764,-29 1570,-107 2316,-66 1534,85 3118,-126 4637,28 790,80 1485,15 2318,-13l9271 -54c849,-23 1413,92 2319,58l13905 -78c535,3 645,76 1161,92 1130,34 2363,-175 3475,-87 1659,132 3002,-122 4636,34l12750 -4c553,28 753,-54 1288,35 274,790 483,1590 674,2425l1256 4851c1385,4831 2487,9787 4081,14545 251,753 551,1625 774,2422 1732,6197 5942,16181 9353,21711 4110,6664 6879,10568 11789,16737 3940,4949 8717,9973 13280,14242 7777,7275 15082,12728 24018,17342 1982,1023 3846,1982 5888,2769 690,266 1513,529 2089,850 179,769 39,1645 30,2446 -10,883 64,1569 70,2444 2,266 -1,238 -13,515 -108,2425 146,6269 35,8241l-36 6311c60,1718 -28,3170 38,4892l-76 15069c-2507,-682 -4938,-1643 -7425,-2531 -3848,-1372 -7426,-3229 -11112,-4934 -1298,-600 -2619,-1376 -3802,-2024 -7792,-4265 -15368,-8908 -22501,-14310 -1342,-1018 -2336,-1819 -3698,-2775l-7681 -6334c-1351,-1276 -2416,-2012 -3846,-3350 -6539,-6117 -17306,-19212 -22336,-27077 -5654,-8840 -8924,-13113 -13226,-23385l-1197 -2922c-680,-2061 -2518,-7537 -3958,-8883 -1786,-1671 -3381,-2301 -5748,-2447 -2348,-145 -4767,-353 -7093,-288l-4888 161c-217,-2 -321,-8 -516,-10l-6692 125c-1718,57 -3174,-23 -4892,33l-9654 126c-67,547 446,2341 578,3072 369,2030 1043,4136 1614,6128l3153 9426c789,2127 1580,4114 2494,6227 2792,6449 9268,18845 13413,24667l6233 9066c2930,4098 6122,8463 9442,12307 977,1131 1739,1989 2652,3131 2837,3551 8006,9331 10957,12129l2856 2996c798,981 2014,2069 3136,3116 1152,1072 1686,1809 2756,2827l274 256c7661,7113 10033,9099 18702,15242l5266 3418c9920,6138 19663,11431 30294,16312 4643,2131 9438,4267 14235,5928 2919,1012 5753,2229 8732,3113 4156,1232 8240,2553 12482,3546 6969,1631 13936,3017 21102,3357 593,28 1068,92 1680,146 711,64 1127,-34 1801,-14 1132,35 2472,207 3604,-57 372,-1367 -26,-9668 48,-12107 22,-729 99,-1029 68,-1805l-30 -11589c2,-241 10,-274 8,-516l-80 -19184c117,-1247 -2,-2254 -37,-3476l-2 -15582c-13,-355 -29,-547 -30,-900l-194 -46224 -10271 -3418c-8002,-3032 -15690,-6361 -22927,-11195 -697,-466 -1235,-756 -1973,-1236 -766,-498 -1360,-989 -2111,-1510 -2851,-1981 -5752,-4473 -8468,-6752 -1516,-1271 -2477,-2574 -4003,-3989 -3996,-3707 -9544,-11472 -11956,-15959 -693,-1292 -1473,-2603 -2097,-3923 -3649,-7731 -5831,-13653 -7677,-22282 -1575,-7352 -2044,-14993 -2130,-22466l48 -1546c31,-4348 325,-10759 1013,-14971 -739,-122 -1405,2 -2189,13l-11589 -7c-1624,52 -2992,-38 -4636,25l-5794 21c-476,-4 -668,-48 -1161,-52 -1950,-13 -5127,233 -6952,58 -1529,-145 -2984,99 -4506,13 -38,-2 -91,-6 -130,-8 -38,-2 -91,-4 -129,-8l-258 -13c-37,-2 -91,-4 -129,-6 -2095,-74 -5646,201 -7595,92l-5797 -57c-6175,240 -12363,-122 -18541,101 -910,32 -4125,107 -4642,-168l48 -4252c79,-3288 387,-6722 1104,-9952 125,-559 170,-923 254,-1423 83,-498 196,-898 291,-1426 525,-2925 1411,-5839 2187,-8701 139,-513 199,-866 387,-1430l1352 -4293c1855,-4925 3510,-9805 5744,-14614l4078 -8634 8059 -14690c1094,-1887 2493,-3836 3705,-5789 583,-940 1281,-1920 1970,-2898 5655,-8013 10346,-12831 16863,-19877 832,-900 1259,-1085 2000,-1857 1396,-1455 2546,-2683 3987,-3991 6449,-5859 12890,-11519 20051,-16492 5213,-3621 10550,-6874 16158,-9735 1314,-671 2610,-1289 4053,-1979l9146 -3817c1207,-429 6731,-2095 7258,-2447 428,685 291,1674 270,2439l-55 9917c26,913 83,1657 97,2571l-24 18675c8,1556 228,5019 18,6308 -1245,834 -3119,1453 -4563,2174 -1475,731 -2989,1661 -4554,2431 -4354,2138 -14913,9843 -18253,12583 -626,513 -1608,1188 -2260,1739 -7918,6656 -13506,13221 -19442,21717 -947,1354 -1893,2725 -2728,4082 -2813,4574 -5826,9191 -8080,14046 -302,652 -888,1558 -1057,2096 582,312 9162,263 10825,217 602,-17 722,48 1290,80 1902,107 3764,-103 5666,4l259 17c2996,168 6021,-124 9018,114 938,73 1749,-97 2704,0 963,97 1732,-53 2704,-23l3997 128c1742,-23 5258,-166 6828,91 5695,-9873 11766,-14717 21446,-21005 897,-582 2008,-1298 3029,-1857 5680,-3120 9179,-4795 14949,-7400 664,-300 888,-378 1525,-624 3978,-1533 7954,-3262 12091,-4273 483,-117 1109,-255 1527,-515 172,-1049 67,-3953 20,-5152l38 -8888c2,-52 11,-204 13,-256 10,-215 12,-191 13,-387l-23 -22664c1,-38 -1,-91 -1,-128l29 -4252c-132,-4687 42,-9214 -90,-13904 -20,-700 94,-990 84,-1678l4 -3476c5,-641 -33,-1155 -57,-1802 -29,-736 -10,-957 46,-1676 150,-1910 -170,-4849 -51,-6952 25,-446 32,-423 34,-902l5 -35671c-25,-625 -80,-1190 -61,-1800 26,-814 197,-965 1,-1804 -562,-92 -1256,-50 -1934,-103 -665,-53 -1361,21 -2060,42l-7190 625c-424,36 -597,86 -1026,145l-8194 1422c-1380,255 -2746,555 -4093,871l-8171 2086c-12105,3432 -25151,7993 -36378,13517l-8103 4130c-646,318 -1317,724 -2024,1102l-4041 2393c-776,423 -1280,724 -2021,1193 -10785,6827 -18127,11378 -28169,20224 -4152,3657 -8614,7869 -13053,12375l-9123 9753c-5305,5984 -10214,12148 -14085,17985 -2179,3288 -4144,6293 -6098,9603 -1912,3238 -3805,6283 -5394,9709 -1099,2368 -2417,4678 -3433,7067 -174,410 -343,687 -578,1177l-1630 3659c-443,885 -626,1568 -1023,2481 -1389,3198 -2594,6237 -3665,9524l-5839 19122c-441,1560 -801,3167 -1145,4803l-1973 9464c-661,3054 -1068,6325 -1524,9452 -695,4756 -1131,9445 -1542,14217 -343,3964 -348,8431 -671,11869l-33 11847c69,2088 -2,7864 383,9517zm207248 -37121c958,259 2142,561 3125,1016 4355,2011 7683,5888 9319,10291 395,1062 658,1985 892,3061 1131,5250 201,11930 -3564,15957 -2472,2644 -3833,3672 -7303,4965 -1064,396 -1984,661 -3061,893 -6083,1307 -11440,159 -16241,-4333 -1103,-1032 -1995,-2118 -2583,-3133 -310,-535 -731,-1093 -998,-1641 -163,-336 -148,-399 -318,-762 -1116,-2389 -1898,-5149 -1986,-7790 -11,-315 -8,-149 0,-386 10,-313 43,-408 51,-774 16,-708 -35,-938 48,-1676 757,-6806 4728,-12107 11327,-14542 419,-156 706,-248 1147,-374 247,-72 415,-132 637,-200l639 -147c263,-1611 77,-3476 21,-5152l-76 -6436c132,-2360 -60,-3133 -49,-5150l53 -3995 8622 -156c224,961 207,9446 196,11454 -10,2016 181,2790 49,5150 -63,1137 237,2739 54,3862zm-27950 42132c7393,6918 15260,10111 25309,9787 3815,-123 7902,-1028 11630,-2632 9368,-4032 15859,-11328 19045,-20985 1912,-5794 1968,-13305 303,-19067l-991 -3057c-477,-1075 -824,-2103 -1389,-3173 -1146,-2178 -2422,-4106 -4086,-6176 -1533,-1907 -3997,-4527 -6071,-5723 160,-982 -107,-6458 17,-7211 553,494 1026,650 1577,1007 6616,4281 12785,11556 15409,18906 932,2610 2412,7404 2509,10346 40,1232 299,2227 229,3468 -132,2374 -82,4587 -545,6972l-715 3501c-1255,5458 -3778,9704 -6872,14136 -398,570 -2551,3198 -2950,3537 -4839,4100 -5289,5311 -11828,8416 -4338,2059 -7582,2799 -12120,3442 -5246,743 -12626,6 -17444,-1801 -2477,-929 -4593,-1732 -7063,-3243 -561,-343 -1106,-589 -1706,-973 -6662,-4256 -12093,-11111 -15004,-17811 -293,-674 -350,-932 -663,-1652 -1226,-2815 -2342,-8608 -2446,-11896 -221,-6930 1037,-14295 4577,-20624 2880,-5149 6154,-9201 10852,-12797l3395 -2486c355,570 78,582 122,1800 21,589 197,4969 -11,5373 -209,404 -1192,990 -1628,1389 -641,587 -1055,1195 -1751,1739 -585,460 -2739,3064 -3170,3693 -1846,2679 -3069,4855 -4142,7475 -2775,6780 -2971,14894 -998,21925 1397,4982 4872,10890 8619,14395zm64078 13847c2912,-3113 5749,-6981 7442,-10033 1541,-2778 2565,-4581 3693,-7462 1169,-2987 2363,-6740 2912,-9883l570 -3625c1102,-9942 13,-18976 -3844,-28203 -2538,-6071 -4908,-9498 -8907,-14385l-4492 -4874c-965,-902 -1472,-1108 -2384,-1979 -843,-807 -1584,-1341 -2513,-2000l-5007 -3358c-2580,-1609 -6945,-3604 -9939,-4584l-7406 -1966c-966,-200 -1533,-307 -2461,-414l-9806 -556c-881,27 -1400,187 -2310,206 -1400,32 -6017,774 -7305,1081 -1606,383 -3257,753 -4853,1203 -3255,921 -6564,2194 -9666,3654 -9653,4549 -16462,10956 -22063,19920 -2252,3606 -4115,8525 -5272,12409 -1009,3387 -1456,6491 -1830,9847 -91,814 -191,1656 -184,2453l-58 2449c-270,5121 697,12095 2144,17056l2436 7260c811,2015 3003,6385 4222,8359 2561,4145 3515,4976 6355,8418 649,787 1692,1620 2438,2501 3960,4674 13273,9974 19752,11875 4521,1327 7650,2014 12311,2323 884,59 1659,27 2450,107l7332 -263c1923,-311 3076,-256 6024,-843l6132 -1490c5871,-1708 11965,-5031 16835,-8747 2900,-2214 4612,-3633 7252,-6455zm-22340 -128808c1352,368 2633,782 4034,1196 767,229 1314,393 2081,618 9492,2786 18601,7040 27069,12307 6969,4334 14301,10930 19796,17735 1135,1407 1993,2568 3061,4020 7943,10783 14707,24138 16547,37440 57,409 143,662 217,1022l1116 12198 -34 5667c-2,234 -6,283 -8,515 -23,2818 -193,5430 -395,8255 -97,1331 -841,7540 -675,8264l4510 48c2714,-37 5429,-178 8112,-27l3474 -92c3085,173 6186,-29 9273,24 52,1 204,-3 257,-2l11329 -85c520,-8 570,37 1032,74l4635 -26c2685,30 5442,-221 8114,-10 1157,91 2429,-116 3602,-64l13780 33c429,3 725,-26 1159,-41 1444,-49 3272,-185 4637,39 365,1571 -99,5362 -80,7214 7,606 -18,808 -90,1419l-2048 13075c-128,609 -196,1017 -349,1556 -255,895 -532,1919 -728,2858 -216,1041 -523,1931 -837,2989l-938 2864c-2220,7147 -5194,13997 -8605,20632l-5664 10232c-14463,23949 -34511,45701 -57782,60738 -3877,2504 -7692,4805 -11748,6816 -620,306 -1310,654 -2027,988l-15886 6358c-574,167 -1581,408 -2038,692 -187,-805 -142,-1567 -61,-2445 111,-1191 -65,-2412 -82,-3603l-51 -25109c32,-569 97,-690 80,-1290l-67 -7596c1503,-518 3204,-1336 4696,-2087 797,-401 1648,-860 2403,-1271l7072 -4215c3150,-1890 6479,-4280 9442,-6502 2557,-1919 7549,-5743 9527,-7752 2065,-2098 4842,-4255 6544,-6657 705,-996 3579,-3960 5360,-6488l8791 -12911c1802,-3014 6178,-10043 7101,-12983 -507,-83 -753,-36 -1289,-18l-23059 -274c-492,14 -803,44 -1287,27l-6830 -129c-1720,-97 -3674,124 -5408,26l-2706 -23c-3920,-23 -2189,-560 -4967,3702 -2900,4448 -7509,8573 -11511,11828 -3566,2901 -7633,5573 -11590,7709l-5819 3113c-5467,2663 -11575,5443 -17398,7297 -7940,2527 -5587,816 -6023,5397 -61,641 -13,1052 13,1674l-17 13393c0,38 0,92 -2,129l57 10815c-95,3230 103,9959 -76,12237 -124,1576 122,5098 58,6952l-69 5153c27,662 38,1138 65,1801l-40 10432c21,603 63,1078 61,1673l-34 27301c-126,2485 107,4978 32,7468 -38,1275 -210,7966 -27,8757 669,358 3980,235 4900,141 38,-4 91,-10 128,-14l898 -110c269,-27 364,-33 641,-44l2311 -206c8918,-414 22812,-4419 31316,-7008 4490,-1367 8974,-2946 13365,-4656 1417,-551 2955,-1082 4450,-1762 5156,-2345 10489,-4233 15477,-6962 811,-443 1543,-861 2277,-1234 5467,-2775 12489,-7140 17672,-10710l13201 -9542c6144,-4689 11803,-10021 17520,-15201 1533,-1389 2788,-3250 4357,-4489 162,-127 324,-265 488,-407l2587 -2766c397,-488 757,-954 1062,-1363 1161,-1558 4414,-4593 6132,-6899 471,-632 1327,-1749 1800,-2378 2344,-3116 4849,-6032 7008,-9247 6205,-9236 8596,-12822 13988,-22999l5357 -11380c2791,-6735 5697,-13603 7665,-20600l326 -1041c1138,-3358 1947,-6805 2803,-10267 1299,-5263 2447,-10613 3331,-15949 507,-3060 1015,-5980 1337,-9060 751,-7131 1594,-14267 1773,-21435l128 -7858c-36,-954 -14,-1363 38,-2319 107,-1932 -124,-6011 -206,-8365 -51,-1432 -13,-3909 -299,-5141 -963,225 -5558,-15 -6952,38 -759,27 -1596,107 -2317,51 -930,-73 -1386,-57 -2317,-27 -953,34 -1364,15 -2322,-38 -746,-44 -1547,38 -2315,63l-2319 -57c-2714,38 -5429,179 -8112,27 -3110,-172 -8251,215 -11586,114 -517,-17 -626,-88 -1163,-91l-6949 105c-534,-2 -646,-76 -1161,-90 -2480,-76 -4978,206 -7467,76 -38,-2 -92,-4 -130,-7l-3991 2c-160,-8 -99,-7 -259,-17l-902 -23c-827,14 -1491,88 -2315,69 -290,-7 -225,-8 -517,-25l-11199 101c-1285,-5520 -2849,-11012 -4399,-16467 -263,-929 -392,-1497 -692,-2425 -517,-1604 -889,-3097 -1413,-4716l-3353 -9421c-2002,-4940 -4093,-9439 -6938,-14192 -1928,-3219 -4012,-6445 -6291,-9450 -7696,-10148 -17192,-20411 -27668,-28469 -2517,-1937 -5080,-3793 -7518,-5337 -3560,-2250 -7172,-4205 -11016,-5902 -4777,-2107 -3819,-677 -3936,-4090l-76 -6178c162,-5421 113,-10935 -38,-16354l9 -5024c90,-948 33,-1524 4,-2447l67 -7599c341,197 8691,2954 10689,3862 3724,1693 7242,3184 10863,5196 1823,1014 3694,1901 5381,2996 787,513 1102,684 1838,1104 5097,2902 9641,6197 14485,9574 8325,5795 19533,15384 25837,23143 3085,3793 6117,7389 8987,11292l9997 15121c2216,3707 4149,7656 6188,11386l1788 3804c1116,2477 2008,5339 3049,7625 1258,2765 2239,5017 5493,5762 1539,353 3202,483 4783,530 2784,78 5589,-259 8365,-132l1932 13c36,0 91,-4 128,-4 3182,-76 6645,-433 9782,-185 471,38 799,2 1285,-14 1436,-52 3417,-240 4763,-132 1032,82 3941,260 4757,-249 -483,-771 -559,-2160 -772,-3064 -1678,-7141 -3718,-11706 -6346,-18464 -1870,-4805 -5747,-12856 -8113,-16987l-2511 -4552c-540,-877 -1215,-2101 -1735,-3035l-3800 -6184c-420,-606 -587,-976 -927,-1514 -328,-517 -679,-957 -1037,-1512 -614,-953 -1432,-1958 -2109,-3020 -1413,-2219 -2925,-4073 -4410,-6163 -2304,-3243 -4588,-6073 -7234,-9162 -770,-900 -1747,-2134 -2508,-3007l-6895 -7499c-561,-528 -1186,-1030 -1667,-1619 -1609,-1979 -4242,-4169 -6330,-6102 -1100,-1015 -1718,-1861 -2931,-2992 -6020,-5627 -11426,-10154 -17873,-14623 -4634,-3211 -9555,-6396 -14469,-9109 -2385,-1314 -4771,-2778 -7219,-4035l-17935 -8737 -9012 -3755c-574,-238 -1133,-425 -1825,-711 -3423,-1415 -7118,-2584 -10686,-3715 -393,-124 -515,-202 -913,-337l-4422 -1324c-711,-242 -1079,-242 -1817,-463l-5326 -1373c-6298,-1693 -13222,-2582 -19675,-3035 -1705,-120 -5907,80 -7087,-113l-59 1419c0,38 2,91 0,128l-48 8888c19,1293 122,2170 19,3476l91 38243c23,665 40,1140 67,1800l-42 10432c25,660 51,1146 67,1802l-46 1289c-2,38 0,91 0,128l99 19442c11,685 -101,978 -82,1676l61 15710c-170,1792 273,5398 -2,7082z"/>
 </g>
</svg>
