<?xml version="1.0" encoding="utf-8"?>
<!-- Generator: Adobe Illustrator 25.4.0, SVG Export Plug-In . SVG Version: 6.00 Build 0)  -->
<svg version="1.1" id="Layer_1" xmlns="http://www.w3.org/2000/svg" xmlns:xlink="http://www.w3.org/1999/xlink" x="0px" y="0px"
	 viewBox="0 0 286.93 106.64" style="enable-background:new 0 0 286.93 106.64;" xml:space="preserve">
<style type="text/css">
	.st0{fill:#FFFFFF;}
	.st1{fill:#1A0E09;}
</style>
<g>
	<path class="st1" d="M104.07,60.97h-1.38c-0.13,0-0.22-0.05-0.3-0.15c-0.1-0.08-0.15-0.17-0.15-0.3V45.63l-0.04-1.26
		c-0.05-0.82-0.25-1.76-0.6-2.82c-0.2-0.57-0.46-1.15-0.78-1.74c-0.32-0.57-0.72-1.1-1.19-1.6c-0.75-0.77-1.63-1.35-2.67-1.74
		c-1.05-0.4-2.22-0.6-3.53-0.6c-1.29,0.03-2.45,0.22-3.49,0.6c-1.01,0.39-1.89,0.96-2.64,1.7c-0.49,0.49-0.92,1.04-1.27,1.64
		c-0.32,0.57-0.59,1.13-0.82,1.7c-0.39,1.06-0.61,2-0.67,2.82l-0.11,1.23v14.88c0,0.13-0.05,0.22-0.15,0.3
		c-0.08,0.1-0.17,0.15-0.3,0.15h-1.38c-0.13,0-0.23-0.05-0.34-0.15c-0.08-0.08-0.11-0.17-0.11-0.3V45.55c0-0.08,0.04-0.6,0.11-1.56
		c0.08-0.99,0.36-2.13,0.86-3.42c0.25-0.67,0.58-1.35,1-2.04c0.42-0.7,0.93-1.35,1.53-1.97c0.99-0.99,2.14-1.72,3.42-2.19
		c1.29-0.49,2.74-0.74,4.35-0.74c1.64,0,3.11,0.25,4.42,0.74c1.32,0.52,2.46,1.27,3.42,2.27c0.6,0.59,1.09,1.24,1.49,1.93
		c0.37,0.7,0.68,1.37,0.93,2.05c0.44,1.24,0.69,2.35,0.74,3.34c0.05,0.89,0.08,1.45,0.08,1.67v14.85c0,0.15-0.04,0.26-0.11,0.34
		C104.3,60.92,104.2,60.97,104.07,60.97L104.07,60.97z"/>
	<path class="st1" d="M122.49,41.63c-0.03,2.25-0.86,4.16-2.51,5.74c-1.6,1.56-3.53,2.34-5.78,2.34h-5.4c-0.1,0-0.18,0.04-0.26,0.11
		c-0.08,0.04-0.11,0.13-0.11,0.26v9.65c0,0.32-0.1,0.6-0.3,0.82c-0.2,0.2-0.45,0.32-0.75,0.37h-1.31V41.64c0-2.26,0.8-4.19,2.4-5.83
		c1.58-1.6,3.5-2.42,5.75-2.45h0.08c0.77,0,1.51,0.1,2.22,0.3c0.74,0.2,1.44,0.49,2.08,0.89c1.18,0.74,2.14,1.73,2.86,2.97
		c0.69,1.24,1.04,2.59,1.04,4.04V41.63L122.49,41.63z M114.2,35.65c-1.6,0.03-2.97,0.63-4.07,1.82c-1.13,1.16-1.7,2.54-1.7,4.15
		v5.37c0,0.1,0.04,0.19,0.11,0.26c0.08,0.08,0.17,0.11,0.3,0.11h5.44c1.63,0,3.02-0.57,4.15-1.7c1.13-1.13,1.7-2.52,1.7-4.15
		s-0.58-3.02-1.74-4.15c-1.13-1.13-2.52-1.7-4.15-1.7H114.2L114.2,35.65z"/>
	<path class="st1" d="M137.27,60.81c-1.29,0-2.53-0.18-3.71-0.56c-1.19-0.35-2.31-0.83-3.35-1.44c-1.88-1.19-3.41-2.79-4.57-4.79
		c-1.17-1.98-1.75-4.17-1.75-6.57c0-1.29,0.17-2.52,0.52-3.71c0.37-1.18,0.87-2.29,1.49-3.3c1.18-1.88,2.79-3.4,4.79-4.57
		c1.98-1.16,4.18-1.74,6.58-1.74c2.38,0,4.57,0.57,6.58,1.7c2.01,1.17,3.61,2.7,4.8,4.61c0.62,1.01,1.11,2.12,1.46,3.3
		c0.37,1.19,0.56,2.43,0.56,3.71c0,1.31-0.18,2.56-0.56,3.75c-0.35,1.18-0.85,2.29-1.5,3.3c-1.17,1.88-2.75,3.4-4.76,4.57
		C141.85,60.23,139.65,60.81,137.27,60.81L137.27,60.81z M137.37,36.41c-1.09,0-2.12,0.15-3.09,0.44c-0.99,0.3-1.91,0.71-2.75,1.23
		c-1.59,0.96-2.85,2.27-3.8,3.93c-0.97,1.65-1.45,3.47-1.45,5.46c0,1.06,0.15,2.09,0.44,3.08c0.27,0.99,0.67,1.91,1.19,2.75
		c0.99,1.58,2.32,2.84,3.98,3.79c1.66,0.96,3.49,1.44,5.47,1.44c1.06,0,2.1-0.15,3.09-0.44c0.97-0.27,1.89-0.68,2.75-1.23
		c1.56-0.96,2.83-2.27,3.8-3.93c0.97-1.65,1.45-3.48,1.45-5.46c0-1.98-0.48-3.8-1.45-5.46c-0.96-1.66-2.24-2.97-3.83-3.93
		c-0.84-0.52-1.76-0.93-2.76-1.23C139.46,36.55,138.44,36.41,137.37,36.41L137.37,36.41z"/>
	<path class="st1" d="M154.16,35.68c-0.25,0-0.51-0.01-0.78-0.04c-0.1,0-0.19-0.04-0.26-0.11c-0.08-0.05-0.13-0.13-0.15-0.22
		l-0.22-1.44c-0.03-0.09,0-0.2,0.08-0.29c0.08-0.09,0.16-0.16,0.26-0.18h3.52c1.91,0.03,3.54,0.72,4.9,2.08
		c1.32,1.36,1.99,2.99,1.99,4.9c0,1.01-0.2,1.98-0.59,2.89c-0.42,0.89-0.98,1.66-1.7,2.3c-0.12,0.08-0.18,0.18-0.18,0.34
		c0.03,0.17,0.1,0.29,0.22,0.37c1.08,0.69,1.96,1.62,2.62,2.78c0.64,1.17,0.96,2.45,0.96,3.86c0,2.08-0.7,3.88-2.1,5.42
		c-1.43,1.51-3.18,2.32-5.23,2.45h-4.42c-0.1-0.03-0.18-0.09-0.26-0.19c-0.08-0.1-0.1-0.2-0.08-0.3l0.22-1.5
		c0.03-0.1,0.08-0.17,0.15-0.22c0.07-0.08,0.16-0.11,0.26-0.11c0.27-0.03,0.53-0.04,0.78-0.04h3.34c1.41-0.12,2.6-0.72,3.57-1.78
		c0.99-1.06,1.48-2.31,1.48-3.74c0-1.53-0.55-2.84-1.63-3.93c-1.09-1.08-2.61-1.65-4.57-1.7c-0.37-0.03-0.75-0.04-1.15-0.04v-2.07
		c0.39,0,0.78-0.01,1.15-0.04c1.61-0.18,2.83-0.7,3.64-1.6c0.82-0.89,1.22-1.94,1.22-3.15c0-1.29-0.44-2.39-1.34-3.3
		c-0.91-0.89-2-1.35-3.27-1.38H154.16L154.16,35.68z"/>
	<path class="st1" d="M187.33,45.47v14.85c0,0.13-0.05,0.22-0.15,0.3c-0.08,0.1-0.17,0.15-0.29,0.15h-1.39
		c-0.12,0-0.22-0.05-0.29-0.15c-0.1-0.08-0.15-0.17-0.15-0.3v-5.37h-15.82v5.29c0,0.13-0.04,0.22-0.11,0.3
		c-0.1,0.1-0.21,0.15-0.34,0.15h-1.38c-0.13,0-0.22-0.05-0.3-0.15c-0.1-0.08-0.15-0.17-0.15-0.3V45.36c0-0.05,0.01-0.23,0.04-0.56
		c0-0.32,0.04-0.74,0.11-1.26c0.15-0.94,0.46-2.1,0.92-3.49c0.5-1.36,1.31-2.61,2.45-3.75c0.89-0.87,1.91-1.56,3.08-2.08
		c1.16-0.52,2.45-0.78,3.86-0.78c1.41,0,2.66,0.27,3.74,0.82c1.09,0.57,2.07,1.29,2.93,2.15c0.57,0.6,1.05,1.24,1.44,1.93
		c0.37,0.67,0.68,1.35,0.93,2.04c0.44,1.26,0.69,2.39,0.74,3.38C187.3,44.76,187.33,45.32,187.33,45.47L187.33,45.47z M185.05,45.45
		c0-0.03-0.01-0.46-0.04-1.3c-0.05-0.82-0.25-1.76-0.6-2.83c-0.2-0.56-0.46-1.13-0.78-1.7c-0.32-0.6-0.72-1.14-1.18-1.63
		c-0.65-0.67-1.39-1.21-2.23-1.63c-0.86-0.42-1.86-0.63-2.97-0.63c-1.04,0.03-2,0.23-2.86,0.63c-0.89,0.42-1.66,0.95-2.3,1.59
		c-0.5,0.5-0.91,1.04-1.23,1.63c-0.34,0.57-0.61,1.14-0.82,1.71c-0.39,1.06-0.63,2-0.7,2.82c-0.08,0.82-0.11,1.24-0.11,1.26v7.5
		h15.82V45.45L185.05,45.45z"/>
	<path class="st1" d="M195.94,43.61c2.7,3.64,6.74,9.11,12.1,16.42c0.08,0.08,0.11,0.16,0.11,0.26c0,0.08-0.01,0.15-0.04,0.22
		c-0.1,0.18-0.25,0.27-0.44,0.27h-1.79c-0.07,0-0.13-0.01-0.18-0.04c-0.08-0.05-0.13-0.1-0.18-0.15
		c-2.45-3.31-6.13-8.31-11.02-14.96c-0.1-0.13-0.23-0.19-0.37-0.19c-0.15,0-0.27,0.05-0.37,0.15l-1.89,2.22
		c-0.04,0.05-0.08,0.1-0.11,0.15c-0.03,0.05-0.04,0.09-0.04,0.15v12.14c0,0.13-0.04,0.23-0.11,0.34c-0.09,0.1-0.21,0.15-0.34,0.15
		h-1.46c-0.13,0-0.24-0.05-0.34-0.15c-0.08-0.1-0.11-0.21-0.11-0.34V33.33h1.2c0.32,0,0.6,0.13,0.82,0.37
		c0.17,0.2,0.29,0.42,0.34,0.67v8.73c0,0.23,0.1,0.37,0.3,0.45c0.2,0.07,0.37,0.03,0.52-0.15c1.43-1.66,3.6-4.14,6.49-7.46
		l0.15-0.15c0.05-0.03,0.11-0.04,0.18-0.04h1.89c0.2,0,0.35,0.09,0.44,0.26c0.08,0.2,0.05,0.37-0.07,0.52
		c-1.27,1.44-3.15,3.6-5.65,6.5c-0.08,0.09-0.11,0.2-0.11,0.29C195.86,43.41,195.89,43.52,195.94,43.61L195.94,43.61z"/>
	<path class="st1" d="M223.14,60.81c-1.29,0-2.53-0.18-3.71-0.56c-1.19-0.35-2.31-0.83-3.35-1.44c-1.88-1.19-3.41-2.79-4.57-4.79
		c-1.17-1.98-1.75-4.17-1.75-6.57c0-1.29,0.17-2.52,0.52-3.71c0.37-1.18,0.87-2.29,1.49-3.3c1.18-1.88,2.79-3.4,4.79-4.57
		c1.98-1.16,4.18-1.74,6.58-1.74c2.38,0,4.57,0.57,6.58,1.7c2.01,1.17,3.61,2.7,4.8,4.61c0.62,1.01,1.11,2.12,1.46,3.3
		c0.37,1.19,0.56,2.43,0.56,3.71c0,1.31-0.18,2.56-0.56,3.75c-0.35,1.18-0.85,2.29-1.5,3.3c-1.17,1.88-2.75,3.4-4.76,4.57
		C227.72,60.23,225.52,60.81,223.14,60.81L223.14,60.81z M223.24,36.41c-1.09,0-2.12,0.15-3.09,0.44c-0.99,0.3-1.91,0.71-2.75,1.23
		c-1.59,0.96-2.85,2.27-3.8,3.93c-0.97,1.65-1.45,3.47-1.45,5.46c0,1.06,0.15,2.09,0.44,3.08c0.27,0.99,0.67,1.91,1.19,2.75
		c0.99,1.58,2.32,2.84,3.98,3.79c1.66,0.96,3.49,1.44,5.47,1.44c1.06,0,2.1-0.15,3.09-0.44c0.97-0.27,1.89-0.68,2.75-1.23
		c1.57-0.96,2.83-2.27,3.8-3.93c0.97-1.65,1.45-3.48,1.45-5.46c0-1.98-0.48-3.8-1.45-5.46c-0.96-1.66-2.24-2.97-3.83-3.93
		c-0.84-0.52-1.76-0.93-2.76-1.23C225.33,36.55,224.31,36.41,223.24,36.41L223.24,36.41z"/>
	<path class="st1" d="M256.24,33.17h1.5c0.13,0,0.23,0.04,0.34,0.11c0.08,0.1,0.11,0.21,0.11,0.34v26.74c0,0.13-0.04,0.23-0.11,0.34
		c-0.1,0.08-0.21,0.11-0.34,0.11h-1.5c-0.13,0-0.23-0.04-0.34-0.11c-0.08-0.1-0.11-0.21-0.11-0.34V47.72c0-0.12-0.05-0.23-0.15-0.33
		c-0.1-0.08-0.21-0.11-0.34-0.11h-13.36c-0.13,0-0.23,0.04-0.34,0.11c-0.08,0.1-0.11,0.21-0.11,0.33v12.72
		c0,0.13-0.05,0.23-0.15,0.34c-0.1,0.08-0.21,0.11-0.33,0.11h-1.43c-0.15,0-0.25-0.04-0.33-0.11c-0.1-0.1-0.15-0.21-0.15-0.34V33.7
		c0-0.13,0.05-0.23,0.15-0.34c0.08-0.1,0.18-0.15,0.33-0.15h1.43c0.12,0,0.23,0.05,0.33,0.15c0.1,0.1,0.15,0.21,0.15,0.34v10.7
		c0,0.12,0.04,0.23,0.11,0.34c0.1,0.1,0.21,0.15,0.34,0.15h13.32c0.13,0,0.23-0.05,0.34-0.15c0.1-0.1,0.15-0.22,0.15-0.34V33.62
		c0-0.13,0.05-0.23,0.15-0.34C256.01,33.21,256.11,33.17,256.24,33.17L256.24,33.17z"/>
	<path class="st1" d="M91.06,79.83c-0.47,0-0.92-0.07-1.35-0.2c-0.43-0.13-0.84-0.3-1.21-0.53c-0.68-0.43-1.24-1.01-1.66-1.74
		c-0.42-0.71-0.63-1.5-0.63-2.36c-0.01-0.01-0.02-0.02-0.03-0.04c-0.03-0.03-0.08-0.04-0.12-0.04h-2.43c-0.05,0-0.09,0.01-0.12,0.04
		c-0.03,0.03-0.04,0.08-0.04,0.12v4.62c0,0.05-0.02,0.09-0.05,0.12c-0.04,0.03-0.08,0.04-0.12,0.04h-0.52
		c-0.06,0-0.09-0.01-0.12-0.04c-0.03-0.04-0.05-0.08-0.05-0.12v-9.71c0-0.05,0.02-0.09,0.05-0.12c0.03-0.04,0.07-0.06,0.12-0.06
		h0.52c0.05,0,0.09,0.02,0.12,0.06c0.03,0.04,0.05,0.08,0.05,0.12v3.89c0,0.04,0.01,0.09,0.04,0.12c0.03,0.03,0.08,0.05,0.12,0.05
		h2.42c0.12,0,0.19-0.02,0.23-0.05l0.04-0.04c0.02-0.11,0.05-0.22,0.08-0.32c0.14-0.43,0.32-0.83,0.54-1.2
		c0.43-0.68,1.01-1.23,1.74-1.66c0.72-0.42,1.52-0.63,2.39-0.63c0.86,0,1.66,0.21,2.39,0.62c0.73,0.42,1.31,0.98,1.74,1.67
		c0.23,0.37,0.4,0.77,0.53,1.2c0.14,0.43,0.2,0.88,0.2,1.35c0,0.48-0.07,0.93-0.2,1.36c-0.13,0.43-0.31,0.83-0.54,1.2
		c-0.42,0.68-1,1.24-1.73,1.66C92.72,79.62,91.92,79.83,91.06,79.83L91.06,79.83z M91.09,70.97c-0.4,0-0.77,0.05-1.12,0.16
		c-0.36,0.11-0.69,0.26-1,0.45c-0.58,0.35-1.03,0.83-1.38,1.43c-0.35,0.6-0.52,1.26-0.52,1.98c0,0.39,0.05,0.76,0.16,1.12
		c0.1,0.36,0.24,0.69,0.43,1c0.36,0.58,0.84,1.03,1.44,1.38c0.6,0.35,1.26,0.52,1.98,0.52c0.39,0,0.76-0.05,1.12-0.16
		c0.35-0.1,0.68-0.25,1-0.45c0.57-0.35,1.02-0.83,1.38-1.43c0.35-0.6,0.52-1.26,0.52-1.98c0-0.72-0.17-1.38-0.52-1.98
		c-0.35-0.6-0.81-1.08-1.39-1.43c-0.31-0.19-0.64-0.34-1-0.45C91.85,71.02,91.48,70.97,91.09,70.97L91.09,70.97z"/>
	<path class="st1" d="M102.54,72.87c-0.01,0.82-0.31,1.51-0.91,2.08c-0.58,0.57-1.28,0.85-2.1,0.85h-1.96
		c-0.04,0-0.07,0.01-0.09,0.04c-0.03,0.02-0.04,0.05-0.04,0.09v3.5c0,0.12-0.04,0.22-0.11,0.3c-0.07,0.07-0.16,0.12-0.27,0.14h-0.48
		v-7.01c0-0.82,0.29-1.52,0.87-2.12c0.58-0.58,1.27-0.88,2.09-0.89h0.03c0.28,0,0.55,0.04,0.81,0.11c0.27,0.07,0.52,0.18,0.75,0.32
		c0.43,0.27,0.78,0.63,1.04,1.08c0.25,0.45,0.38,0.94,0.38,1.47V72.87L102.54,72.87z M99.53,70.69c-0.58,0.01-1.08,0.23-1.48,0.66
		c-0.41,0.42-0.62,0.92-0.62,1.51v1.95c0,0.04,0.01,0.07,0.04,0.09c0.03,0.03,0.06,0.04,0.11,0.04h1.98c0.59,0,1.1-0.21,1.51-0.62
		c0.41-0.41,0.62-0.92,0.62-1.51c0-0.59-0.21-1.1-0.63-1.51c-0.41-0.41-0.91-0.62-1.51-0.62H99.53L99.53,70.69z"/>
	<path class="st1" d="M111.3,70.04v9.74c0,0.05-0.01,0.09-0.04,0.12c-0.03,0.03-0.08,0.04-0.12,0.04h-0.51
		c-0.04,0-0.08-0.01-0.11-0.04c-0.04-0.04-0.06-0.08-0.06-0.12v-1.47c-0.14,0.19-0.29,0.37-0.46,0.54
		c-0.36,0.36-0.78,0.63-1.25,0.81c-0.48,0.19-1.01,0.28-1.6,0.28c-0.61,0-1.16-0.09-1.64-0.28c-0.49-0.19-0.9-0.47-1.25-0.84
		c-0.41-0.41-0.69-0.87-0.85-1.36c-0.16-0.49-0.26-0.92-0.31-1.27c-0.02-0.19-0.03-0.34-0.04-0.47v-5.71c0-0.05,0.02-0.09,0.06-0.12
		c0.03-0.04,0.06-0.06,0.11-0.06h0.51c0.04,0,0.09,0.02,0.12,0.06c0.03,0.04,0.04,0.08,0.04,0.12v5.49c0,0.01,0.01,0.17,0.03,0.47
		c0.02,0.3,0.09,0.64,0.22,1.04c0.07,0.22,0.17,0.43,0.28,0.65c0.12,0.22,0.26,0.41,0.44,0.59c0.27,0.29,0.6,0.5,0.99,0.65
		c0.39,0.15,0.82,0.22,1.31,0.22c0.48,0,0.9-0.07,1.28-0.22c0.38-0.13,0.71-0.34,0.99-0.62c0.18-0.19,0.33-0.39,0.46-0.59
		c0.12-0.22,0.22-0.43,0.3-0.65c0.15-0.39,0.24-0.73,0.26-1.04l0.04-0.46v-5.5c0-0.05,0.02-0.09,0.06-0.12
		c0.03-0.03,0.06-0.04,0.11-0.04h0.51c0.04,0,0.09,0.01,0.12,0.04C111.28,69.96,111.3,70,111.3,70.04L111.3,70.04z"/>
	<path class="st1" d="M120.08,69.89c0.12,0,0.21,0,0.27,0.01c0.07,0.01,0.11,0.01,0.12,0.01c0.04,0.01,0.12,0.02,0.22,0.04
		c0.04,0,0.07,0.02,0.09,0.05c0.03,0.03,0.04,0.06,0.04,0.11v8.73c0.01,0.04,0.03,0.06,0.06,0.08c0.04,0.03,0.08,0.05,0.12,0.05
		h1.94c0.04,0,0.09,0.02,0.12,0.05c0.04,0.03,0.06,0.07,0.06,0.12v0.48c-0.01,0.04-0.03,0.09-0.07,0.12
		c-0.03,0.04-0.07,0.06-0.12,0.06H112.3c-0.05,0-0.09-0.02-0.12-0.06c-0.04-0.03-0.06-0.08-0.07-0.12v-0.48
		c0-0.05,0.02-0.09,0.06-0.12c0.03-0.03,0.08-0.05,0.12-0.05h1.94c0.05,0,0.09-0.02,0.12-0.05c0.02-0.02,0.03-0.04,0.04-0.07
		c0.03-0.86,0.1-1.67,0.22-2.43c0.14-0.92,0.34-1.74,0.6-2.47c0.23-0.62,0.49-1.18,0.81-1.66c0.32-0.49,0.67-0.92,1.08-1.27
		c0.59-0.49,1.15-0.81,1.7-0.95C119.36,69.96,119.78,69.89,120.08,69.89L120.08,69.89z M115.23,78.82c0,0.05,0.02,0.09,0.06,0.12
		c0.04,0.03,0.08,0.05,0.12,0.05h4.41c0.05,0,0.09-0.02,0.12-0.05c0.04-0.03,0.05-0.07,0.05-0.12V70.9c0-0.04-0.02-0.09-0.05-0.12
		c-0.04-0.03-0.08-0.04-0.12-0.04c-0.26,0.02-0.59,0.09-0.98,0.22c-0.4,0.13-0.8,0.38-1.21,0.73c-0.34,0.31-0.65,0.67-0.93,1.11
		c-0.28,0.43-0.52,0.92-0.72,1.48c-0.24,0.68-0.43,1.46-0.55,2.32c-0.1,0.69-0.17,1.43-0.2,2.23H115.23L115.23,78.82z"/>
	<path class="st1" d="M132.04,70.04v9.74c0,0.05-0.01,0.09-0.04,0.12c-0.03,0.03-0.08,0.04-0.12,0.04h-0.51
		c-0.04,0-0.08-0.01-0.11-0.04c-0.04-0.04-0.06-0.08-0.06-0.12v-1.47c-0.14,0.19-0.29,0.37-0.46,0.54
		c-0.36,0.36-0.78,0.63-1.25,0.81c-0.48,0.19-1.01,0.28-1.6,0.28c-0.61,0-1.16-0.09-1.64-0.28c-0.49-0.19-0.9-0.47-1.25-0.84
		c-0.41-0.41-0.69-0.87-0.85-1.36c-0.16-0.49-0.26-0.92-0.31-1.27c-0.02-0.19-0.03-0.34-0.04-0.47v-5.71c0-0.05,0.02-0.09,0.06-0.12
		c0.03-0.04,0.06-0.06,0.11-0.06h0.51c0.04,0,0.09,0.02,0.12,0.06c0.03,0.04,0.04,0.08,0.04,0.12v5.49c0,0.01,0.01,0.17,0.03,0.47
		c0.02,0.3,0.09,0.64,0.22,1.04c0.07,0.22,0.17,0.43,0.28,0.65c0.12,0.22,0.26,0.41,0.44,0.59c0.27,0.29,0.6,0.5,0.99,0.65
		c0.39,0.15,0.82,0.22,1.31,0.22c0.48,0,0.9-0.07,1.28-0.22c0.38-0.13,0.71-0.34,0.99-0.62c0.18-0.19,0.33-0.39,0.46-0.59
		c0.12-0.22,0.22-0.43,0.3-0.65c0.15-0.39,0.24-0.73,0.26-1.04l0.04-0.46v-5.5c0-0.05,0.02-0.09,0.06-0.12
		c0.03-0.03,0.06-0.04,0.11-0.04h0.51c0.04,0,0.09,0.01,0.12,0.04C132.02,69.96,132.04,70,132.04,70.04L132.04,70.04z"/>
	<path class="st1" d="M141.06,69.91c0.03,0.03,0.04,0.07,0.04,0.12v9.67c0,0.05-0.02,0.09-0.06,0.12c-0.03,0.04-0.06,0.06-0.11,0.06
		h-0.52c-0.04,0-0.07-0.02-0.11-0.06c-0.03-0.03-0.04-0.07-0.04-0.12v-5.42c-0.11,0.15-0.23,0.28-0.35,0.41
		c-0.35,0.36-0.76,0.64-1.24,0.82c-0.48,0.18-1.01,0.27-1.61,0.27c-0.58,0-1.11-0.09-1.58-0.27c-0.47-0.17-0.88-0.44-1.24-0.8
		c-0.22-0.23-0.4-0.46-0.55-0.72c-0.15-0.25-0.27-0.5-0.36-0.74c-0.18-0.47-0.28-0.88-0.31-1.24c-0.03-0.35-0.04-0.54-0.04-0.57
		v-1.4c0-0.05,0.01-0.08,0.04-0.11c0.04-0.04,0.08-0.06,0.12-0.06h0.5c0.05,0,0.08,0.02,0.11,0.06c0.04,0.03,0.06,0.06,0.06,0.11
		v1.4l0.04,0.44c0.02,0.3,0.1,0.64,0.24,1.02c0.08,0.21,0.18,0.41,0.3,0.62c0.13,0.22,0.28,0.41,0.46,0.59
		c0.27,0.27,0.59,0.48,0.96,0.62c0.38,0.14,0.8,0.21,1.27,0.22c0.48,0,0.9-0.07,1.28-0.22c0.38-0.14,0.7-0.35,0.97-0.63
		c0.17-0.18,0.31-0.37,0.43-0.58c0.12-0.21,0.21-0.43,0.28-0.63c0.13-0.39,0.2-0.73,0.22-1.02l0.01-0.46v-1.4
		c0-0.05,0.02-0.08,0.06-0.11c0.03-0.04,0.06-0.05,0.11-0.05h0.5C140.98,69.85,141.02,69.87,141.06,69.91L141.06,69.91z"/>
	<path class="st1" d="M147.26,79.82h-5.4c-0.05,0-0.08-0.02-0.11-0.06c-0.04-0.03-0.06-0.06-0.06-0.11v-9.63
		c0-0.04,0.02-0.09,0.06-0.12c0.03-0.03,0.06-0.04,0.11-0.04h5.42c0.05,0,0.09,0.02,0.12,0.06c0.03,0.03,0.05,0.08,0.05,0.12v0.46
		c0,0.05-0.02,0.08-0.05,0.11c-0.04,0.04-0.08,0.05-0.12,0.05h-4.63c-0.04,0-0.09,0.02-0.12,0.05c-0.03,0.03-0.04,0.07-0.04,0.12
		v2.96c0,0.06,0.01,0.09,0.04,0.12c0.03,0.04,0.08,0.06,0.12,0.06h3.33c0.04,0,0.09,0.02,0.12,0.06c0.04,0.03,0.06,0.06,0.06,0.11
		v0.46c0,0.05-0.02,0.09-0.06,0.12c-0.03,0.04-0.08,0.05-0.12,0.05h-3.33c-0.04,0-0.09,0.01-0.12,0.04
		c-0.03,0.03-0.04,0.08-0.04,0.12v4.12h4.76c0.05,0,0.09,0.02,0.12,0.06c0.04,0.03,0.06,0.07,0.06,0.12v0.42
		c0,0.05-0.02,0.08-0.06,0.11C147.35,79.8,147.31,79.82,147.26,79.82L147.26,79.82z"/>
	<path class="st1" d="M156.5,78.48c-0.45,0.42-0.97,0.75-1.55,0.98c-0.59,0.24-1.22,0.36-1.88,0.36c-0.49,0-0.95-0.07-1.4-0.2
		c-0.45-0.13-0.87-0.31-1.25-0.55c-0.72-0.45-1.3-1.05-1.74-1.81c-0.43-0.76-0.65-1.58-0.65-2.48c0-0.49,0.06-0.97,0.19-1.42
		c0.14-0.45,0.32-0.86,0.57-1.24c0.44-0.72,1.04-1.3,1.79-1.74c0.75-0.44,1.59-0.66,2.49-0.66c0.61,0,1.19,0.1,1.74,0.31
		c0.56,0.22,1.05,0.51,1.48,0.87c-0.14,0.14-0.34,0.35-0.61,0.62c-0.37-0.29-0.77-0.52-1.21-0.69c-0.45-0.16-0.92-0.24-1.42-0.24
		c-0.75,0-1.43,0.18-2.06,0.54c-0.62,0.37-1.11,0.85-1.48,1.44c-0.2,0.32-0.35,0.66-0.47,1.04c-0.11,0.37-0.16,0.75-0.16,1.16
		c0,0.75,0.18,1.44,0.55,2.06c0.36,0.62,0.84,1.12,1.43,1.5c0.32,0.2,0.66,0.35,1.04,0.46c0.37,0.11,0.75,0.16,1.16,0.16
		c0.55,0,1.06-0.09,1.54-0.28c0.49-0.2,0.91-0.47,1.28-0.81L156.5,78.48L156.5,78.48z"/>
	<path class="st1" d="M159.71,73.59c0.98,1.32,2.45,3.31,4.4,5.96c0.03,0.03,0.04,0.06,0.04,0.09c0,0.03,0,0.05-0.01,0.08
		c-0.04,0.06-0.09,0.1-0.16,0.1h-0.65c-0.03,0-0.05,0-0.07-0.01c-0.03-0.02-0.05-0.04-0.07-0.06c-0.89-1.2-2.23-3.02-4-5.43
		c-0.04-0.05-0.08-0.07-0.14-0.07c-0.06,0-0.1,0.02-0.14,0.06l-0.69,0.81c-0.02,0.02-0.03,0.04-0.04,0.06
		c-0.01,0.02-0.01,0.03-0.01,0.05v4.41c0,0.05-0.01,0.09-0.04,0.12c-0.03,0.04-0.08,0.06-0.12,0.06h-0.53
		c-0.05,0-0.09-0.02-0.12-0.06c-0.03-0.04-0.04-0.08-0.04-0.12v-9.78h0.44c0.12,0,0.22,0.05,0.3,0.14c0.06,0.07,0.1,0.15,0.12,0.24
		v3.17c0,0.08,0.04,0.14,0.11,0.16c0.07,0.03,0.13,0.01,0.19-0.06c0.52-0.6,1.31-1.5,2.36-2.71l0.06-0.05
		c0.02-0.01,0.04-0.01,0.07-0.01h0.69c0.07,0,0.13,0.03,0.16,0.09c0.03,0.07,0.02,0.14-0.03,0.19c-0.46,0.52-1.14,1.31-2.05,2.36
		c-0.03,0.03-0.04,0.07-0.04,0.11C159.68,73.52,159.69,73.55,159.71,73.59L159.71,73.59z"/>
	<path class="st1" d="M172.07,74.26v5.39c0,0.05-0.02,0.08-0.06,0.11c-0.03,0.04-0.06,0.06-0.11,0.06h-0.51
		c-0.04,0-0.08-0.02-0.11-0.06c-0.04-0.03-0.06-0.06-0.06-0.11v-1.95h-5.74v1.92c0,0.05-0.01,0.08-0.04,0.11
		c-0.04,0.04-0.08,0.06-0.12,0.06h-0.5c-0.05,0-0.08-0.02-0.11-0.06c-0.04-0.03-0.05-0.06-0.05-0.11v-5.41c0-0.02,0-0.09,0.01-0.2
		c0-0.12,0.01-0.27,0.04-0.46c0.05-0.34,0.17-0.76,0.34-1.27c0.18-0.49,0.48-0.95,0.89-1.36c0.32-0.32,0.7-0.57,1.12-0.75
		c0.42-0.19,0.89-0.28,1.4-0.28c0.51,0,0.97,0.1,1.36,0.3c0.4,0.21,0.75,0.47,1.07,0.78c0.21,0.22,0.38,0.45,0.52,0.7
		c0.14,0.24,0.25,0.49,0.34,0.74c0.16,0.46,0.25,0.87,0.27,1.23C172.05,74,172.07,74.21,172.07,74.26L172.07,74.26z M171.24,74.25
		c0-0.01,0-0.17-0.01-0.47c-0.02-0.3-0.09-0.64-0.22-1.03c-0.07-0.2-0.17-0.41-0.28-0.62c-0.12-0.22-0.26-0.41-0.43-0.59
		c-0.23-0.24-0.5-0.44-0.81-0.59c-0.31-0.15-0.67-0.23-1.08-0.23c-0.38,0.01-0.72,0.09-1.04,0.23c-0.32,0.15-0.6,0.35-0.84,0.58
		c-0.18,0.18-0.33,0.38-0.45,0.59c-0.12,0.21-0.22,0.41-0.3,0.62c-0.14,0.38-0.23,0.73-0.26,1.02c-0.03,0.3-0.04,0.45-0.04,0.46
		v2.72h5.74V74.25L171.24,74.25z"/>
	<path class="st1" d="M172.67,79.82c-0.02-0.03-0.03-0.06-0.03-0.09c0-0.03,0.01-0.05,0.03-0.08c0.9-1.82,1.57-3.19,2.02-4.1
		c-0.08-0.04-0.16-0.08-0.24-0.12c-0.08-0.04-0.16-0.1-0.23-0.16l-0.01-0.01c-0.22-0.19-0.34-0.31-0.38-0.35
		c-0.04-0.04-0.1-0.1-0.17-0.17c-0.2-0.25-0.35-0.53-0.47-0.85c-0.12-0.32-0.18-0.64-0.19-0.99c-0.02-0.83,0.26-1.54,0.83-2.13
		c0.58-0.58,1.27-0.88,2.09-0.89h0.08c0.82,0.01,1.52,0.31,2.09,0.9c0.58,0.59,0.87,1.3,0.87,2.12v7.06h-0.46
		c-0.11-0.01-0.2-0.06-0.29-0.14c-0.07-0.08-0.11-0.18-0.11-0.3v-3.53c0-0.04-0.01-0.07-0.04-0.09c-0.03-0.03-0.06-0.04-0.09-0.04
		h-2.43l-1.94,3.96c-0.01,0.03-0.03,0.05-0.07,0.07c-0.03,0.02-0.05,0.03-0.08,0.03h-0.63C172.75,79.9,172.7,79.88,172.67,79.82
		L172.67,79.82z M174.45,74.34c0.41,0.42,0.91,0.63,1.5,0.63h2.01c0.04,0,0.07-0.01,0.09-0.04c0.03-0.03,0.04-0.06,0.04-0.09v-1.96
		c0-0.59-0.21-1.1-0.62-1.53c-0.41-0.42-0.9-0.64-1.48-0.65h-0.03c-0.58,0-1.09,0.21-1.51,0.62c-0.42,0.42-0.64,0.93-0.64,1.52
		C173.82,73.43,174.03,73.93,174.45,74.34L174.45,74.34z"/>
	<path class="st1" d="M193.27,73.59c0.98,1.32,2.45,3.31,4.4,5.96c0.03,0.03,0.04,0.06,0.04,0.09c0,0.03,0,0.05-0.01,0.08
		c-0.04,0.06-0.09,0.1-0.16,0.1h-0.65c-0.03,0-0.05,0-0.07-0.01c-0.03-0.02-0.05-0.04-0.07-0.06c-0.89-1.2-2.23-3.02-4-5.43
		c-0.04-0.05-0.08-0.07-0.14-0.07c-0.06,0-0.1,0.02-0.14,0.06l-0.69,0.81c-0.02,0.02-0.03,0.04-0.04,0.06
		c-0.01,0.02-0.01,0.03-0.01,0.05v4.41c0,0.05-0.01,0.09-0.04,0.12c-0.03,0.04-0.08,0.06-0.12,0.06h-0.53
		c-0.05,0-0.09-0.02-0.12-0.06c-0.03-0.04-0.04-0.08-0.04-0.12v-9.78h0.43c0.12,0,0.22,0.05,0.3,0.14c0.06,0.07,0.1,0.15,0.12,0.24
		v3.17c0,0.08,0.04,0.14,0.11,0.16c0.07,0.03,0.13,0.01,0.19-0.06c0.52-0.6,1.31-1.5,2.36-2.71l0.06-0.05
		c0.02-0.01,0.04-0.01,0.07-0.01h0.69c0.07,0,0.13,0.03,0.16,0.09c0.03,0.07,0.02,0.14-0.03,0.19c-0.46,0.52-1.14,1.31-2.05,2.36
		c-0.03,0.03-0.04,0.07-0.04,0.11C193.24,73.52,193.25,73.55,193.27,73.59L193.27,73.59z"/>
	<path class="st1" d="M203.15,79.83c-0.47,0-0.92-0.07-1.35-0.2c-0.43-0.13-0.84-0.3-1.21-0.52c-0.68-0.43-1.24-1.01-1.66-1.74
		c-0.42-0.72-0.64-1.51-0.64-2.39c0-0.47,0.06-0.92,0.19-1.35c0.14-0.43,0.32-0.83,0.54-1.2c0.43-0.68,1.01-1.24,1.74-1.66
		c0.72-0.42,1.52-0.63,2.39-0.63c0.87,0,1.66,0.21,2.39,0.62c0.73,0.42,1.31,0.98,1.74,1.67c0.23,0.37,0.4,0.77,0.53,1.2
		c0.14,0.43,0.2,0.88,0.2,1.35c0,0.48-0.07,0.93-0.2,1.36c-0.13,0.43-0.31,0.83-0.54,1.2c-0.42,0.68-1,1.24-1.73,1.66
		C204.81,79.62,204.02,79.83,203.15,79.83L203.15,79.83z M203.19,70.97c-0.4,0-0.77,0.05-1.12,0.16c-0.36,0.11-0.69,0.26-1,0.45
		c-0.58,0.35-1.04,0.83-1.38,1.43c-0.35,0.6-0.53,1.26-0.53,1.98c0,0.39,0.05,0.76,0.16,1.12c0.1,0.36,0.24,0.69,0.43,1
		c0.36,0.58,0.84,1.03,1.45,1.38c0.6,0.35,1.27,0.52,1.99,0.52c0.39,0,0.76-0.05,1.12-0.16c0.35-0.1,0.69-0.25,1-0.45
		c0.57-0.35,1.03-0.83,1.38-1.43c0.35-0.6,0.53-1.26,0.53-1.98c0-0.72-0.17-1.38-0.53-1.98c-0.35-0.6-0.81-1.08-1.39-1.43
		c-0.31-0.19-0.64-0.34-1-0.45C203.95,71.02,203.58,70.97,203.19,70.97L203.19,70.97z"/>
	<path class="st1" d="M209.64,79.85h-0.52c-0.05,0-0.09-0.02-0.12-0.05c-0.04-0.03-0.06-0.07-0.06-0.12v-9.73
		c0-0.07,0.04-0.12,0.11-0.16c0.03-0.01,0.05-0.01,0.07-0.01c0.05,0,0.08,0.02,0.11,0.06l3.66,3.65c0.04,0.04,0.08,0.06,0.12,0.06
		c0.04,0,0.09-0.02,0.12-0.06c0.78-0.77,1.95-1.94,3.51-3.51c0.05-0.05,0.12-0.07,0.19-0.04c0.06,0.03,0.1,0.08,0.1,0.16v9.55
		c0,0.06-0.01,0.09-0.04,0.12c-0.04,0.04-0.08,0.06-0.12,0.06h-0.53c-0.05,0-0.09-0.02-0.12-0.06c-0.04-0.03-0.06-0.07-0.06-0.12
		v-7.47c0-0.07-0.03-0.13-0.1-0.16c-0.07-0.03-0.14-0.01-0.19,0.04c-0.58,0.59-1.46,1.48-2.64,2.66c-0.03,0.03-0.08,0.04-0.12,0.04
		c-0.05,0-0.09-0.01-0.12-0.04l-2.79-2.79c-0.05-0.06-0.11-0.08-0.18-0.04c-0.07,0.03-0.11,0.08-0.11,0.15v7.66
		c0,0.04-0.02,0.09-0.06,0.12C209.74,79.83,209.7,79.85,209.64,79.85L209.64,79.85z"/>
	<path class="st1" d="M225.92,79.89h-0.5c-0.05,0-0.08-0.02-0.11-0.06c-0.04-0.03-0.06-0.06-0.06-0.11v-5.41l-0.01-0.46
		c-0.02-0.3-0.09-0.64-0.22-1.02c-0.07-0.21-0.17-0.42-0.28-0.63c-0.12-0.21-0.26-0.4-0.43-0.58c-0.27-0.28-0.59-0.49-0.97-0.63
		c-0.38-0.15-0.81-0.22-1.28-0.22c-0.47,0.01-0.89,0.08-1.27,0.22c-0.37,0.14-0.69,0.35-0.96,0.62c-0.18,0.18-0.33,0.38-0.46,0.59
		c-0.12,0.21-0.21,0.41-0.3,0.62c-0.14,0.39-0.22,0.73-0.24,1.02l-0.04,0.45v5.4c0,0.05-0.02,0.08-0.06,0.11
		c-0.03,0.04-0.06,0.06-0.11,0.06h-0.5c-0.05,0-0.09-0.02-0.12-0.06c-0.03-0.03-0.04-0.06-0.04-0.11v-5.41
		c0-0.03,0.01-0.22,0.04-0.57c0.03-0.36,0.13-0.77,0.31-1.24c0.09-0.24,0.21-0.49,0.36-0.74c0.15-0.25,0.34-0.49,0.55-0.72
		c0.36-0.36,0.78-0.63,1.24-0.8c0.47-0.18,0.99-0.27,1.58-0.27c0.59,0,1.13,0.09,1.61,0.27c0.48,0.19,0.89,0.46,1.24,0.82
		c0.22,0.21,0.4,0.45,0.54,0.7c0.14,0.25,0.25,0.5,0.34,0.74c0.16,0.45,0.25,0.85,0.27,1.21c0.02,0.32,0.03,0.53,0.03,0.61v5.39
		c0,0.06-0.01,0.09-0.04,0.12C226.01,79.87,225.97,79.89,225.92,79.89L225.92,79.89z"/>
	<path class="st1" d="M234.1,74.26v5.39c0,0.05-0.02,0.08-0.06,0.11c-0.03,0.04-0.06,0.06-0.11,0.06h-0.51
		c-0.04,0-0.08-0.02-0.11-0.06c-0.04-0.03-0.06-0.06-0.06-0.11v-1.95h-5.74v1.92c0,0.05-0.01,0.08-0.04,0.11
		c-0.04,0.04-0.08,0.06-0.12,0.06h-0.5c-0.05,0-0.08-0.02-0.11-0.06c-0.04-0.03-0.06-0.06-0.06-0.11v-5.41c0-0.02,0-0.09,0.01-0.2
		c0-0.12,0.01-0.27,0.04-0.46c0.05-0.34,0.17-0.76,0.34-1.27c0.18-0.49,0.48-0.95,0.89-1.36c0.32-0.32,0.7-0.57,1.12-0.75
		c0.42-0.19,0.89-0.28,1.4-0.28c0.51,0,0.97,0.1,1.36,0.3c0.4,0.21,0.75,0.47,1.07,0.78c0.21,0.22,0.38,0.45,0.52,0.7
		c0.14,0.24,0.25,0.49,0.34,0.74c0.16,0.46,0.25,0.87,0.27,1.23C234.09,74,234.1,74.21,234.1,74.26L234.1,74.26z M233.28,74.25
		c0-0.01,0-0.17-0.01-0.47c-0.02-0.3-0.09-0.64-0.22-1.03c-0.07-0.2-0.17-0.41-0.28-0.62c-0.11-0.22-0.26-0.41-0.43-0.59
		c-0.23-0.24-0.5-0.44-0.81-0.59c-0.31-0.15-0.67-0.23-1.08-0.23c-0.38,0.01-0.72,0.09-1.04,0.23c-0.32,0.15-0.6,0.35-0.84,0.58
		c-0.18,0.18-0.33,0.38-0.45,0.59c-0.12,0.21-0.22,0.41-0.3,0.62c-0.14,0.38-0.23,0.73-0.26,1.02c-0.03,0.3-0.04,0.45-0.04,0.46
		v2.72h5.74V74.25L233.28,74.25z"/>
	<path class="st1" d="M241.17,69.8h0.54c0.05,0,0.09,0.01,0.12,0.04c0.03,0.04,0.04,0.08,0.04,0.12v9.71c0,0.05-0.01,0.09-0.04,0.12
		c-0.04,0.03-0.08,0.04-0.12,0.04h-0.54c-0.05,0-0.09-0.01-0.12-0.04c-0.03-0.04-0.04-0.08-0.04-0.12v-4.59
		c0-0.04-0.02-0.09-0.05-0.12c-0.04-0.03-0.08-0.04-0.12-0.04h-4.85c-0.05,0-0.09,0.01-0.12,0.04c-0.03,0.03-0.04,0.08-0.04,0.12
		v4.62c0,0.05-0.02,0.09-0.06,0.12c-0.03,0.03-0.08,0.04-0.12,0.04h-0.52c-0.05,0-0.09-0.01-0.12-0.04
		c-0.04-0.04-0.06-0.08-0.06-0.12v-9.71c0-0.05,0.02-0.09,0.06-0.12c0.03-0.04,0.07-0.06,0.12-0.06h0.52c0.04,0,0.09,0.02,0.12,0.06
		c0.04,0.04,0.06,0.08,0.06,0.12v3.89c0,0.04,0.01,0.09,0.04,0.12c0.04,0.03,0.08,0.05,0.12,0.05h4.84c0.05,0,0.09-0.02,0.12-0.05
		c0.04-0.04,0.06-0.08,0.06-0.12v-3.91c0-0.05,0.02-0.09,0.05-0.12C241.09,69.81,241.13,69.8,241.17,69.8L241.17,69.8z"/>
	<path class="st1" d="M251.05,70.04v9.74c0,0.05-0.01,0.09-0.04,0.12c-0.03,0.03-0.08,0.04-0.12,0.04h-0.51
		c-0.04,0-0.08-0.01-0.11-0.04c-0.04-0.04-0.06-0.08-0.06-0.12v-1.47c-0.14,0.19-0.29,0.37-0.46,0.54
		c-0.36,0.36-0.78,0.63-1.25,0.81c-0.48,0.19-1.01,0.28-1.6,0.28c-0.61,0-1.16-0.09-1.64-0.28c-0.49-0.19-0.9-0.47-1.25-0.84
		c-0.41-0.41-0.69-0.87-0.85-1.36c-0.16-0.49-0.26-0.92-0.31-1.27c-0.02-0.19-0.03-0.34-0.04-0.47v-5.71c0-0.05,0.02-0.09,0.06-0.12
		c0.03-0.04,0.06-0.06,0.11-0.06h0.51c0.04,0,0.09,0.02,0.12,0.06c0.03,0.04,0.04,0.08,0.04,0.12v5.49c0,0.01,0.01,0.17,0.03,0.47
		c0.02,0.3,0.09,0.64,0.22,1.04c0.07,0.22,0.17,0.43,0.28,0.65c0.12,0.22,0.26,0.41,0.44,0.59c0.27,0.29,0.6,0.5,0.99,0.65
		c0.39,0.15,0.82,0.22,1.31,0.22c0.48,0,0.9-0.07,1.28-0.22c0.38-0.13,0.71-0.34,0.99-0.62c0.18-0.19,0.33-0.39,0.46-0.59
		c0.12-0.22,0.22-0.43,0.3-0.65c0.15-0.39,0.24-0.73,0.26-1.04l0.04-0.46v-5.5c0-0.05,0.02-0.09,0.06-0.12
		c0.03-0.03,0.06-0.04,0.11-0.04h0.51c0.04,0,0.09,0.01,0.12,0.04C251.03,69.96,251.05,70,251.05,70.04L251.05,70.04z"/>
	<path class="st1" d="M251.84,79.82c-0.02-0.03-0.03-0.06-0.03-0.09c0-0.03,0.01-0.05,0.03-0.08c0.9-1.82,1.57-3.19,2.02-4.1
		c-0.08-0.04-0.16-0.08-0.24-0.12c-0.08-0.04-0.16-0.1-0.23-0.16l-0.01-0.01c-0.22-0.19-0.34-0.31-0.38-0.35
		c-0.04-0.04-0.1-0.1-0.17-0.17c-0.2-0.25-0.35-0.53-0.47-0.85c-0.12-0.32-0.18-0.64-0.19-0.99c-0.02-0.83,0.26-1.54,0.83-2.13
		c0.58-0.58,1.27-0.88,2.09-0.89h0.08c0.82,0.01,1.52,0.31,2.09,0.9c0.58,0.59,0.87,1.3,0.87,2.12v7.06h-0.46
		c-0.11-0.01-0.2-0.06-0.29-0.14c-0.07-0.08-0.11-0.18-0.11-0.3v-3.53c0-0.04-0.01-0.07-0.04-0.09c-0.03-0.03-0.06-0.04-0.09-0.04
		h-2.43l-1.94,3.96c-0.01,0.03-0.03,0.05-0.07,0.07c-0.03,0.02-0.05,0.03-0.08,0.03h-0.63C251.93,79.9,251.88,79.88,251.84,79.82
		L251.84,79.82z M253.63,74.34c0.41,0.42,0.91,0.63,1.5,0.63h2.01c0.04,0,0.07-0.01,0.09-0.04c0.03-0.03,0.04-0.06,0.04-0.09v-1.96
		c0-0.59-0.21-1.1-0.62-1.53c-0.41-0.42-0.9-0.64-1.48-0.65h-0.03c-0.58,0-1.09,0.21-1.51,0.62c-0.42,0.42-0.64,0.93-0.64,1.52
		C253,73.43,253.21,73.93,253.63,74.34L253.63,74.34z"/>
	<path class="st1" d="M41.72,79.37l9.93-6.85l-2.28-1.57l-12.06,8.33C38.4,80.03,40.11,79.84,41.72,79.37L41.72,79.37z M76.05,52.71
		L76.05,52.71c-0.01-0.01-0.02-0.03-0.03-0.04c-0.79-1.12-2.45-1.14-3.33-0.09l-0.81,0.98l-0.22,0.16l0-0.1l-1.55,1.14l0,0.1
		l-0.27,0.2l-0.08-0.04l-1.08,0.8l0.01,0.09l-0.32,0.24l-0.08-0.04l-0.97,0.72l0.07,0.04l-0.17,0.13l-0.02-0.08l-0.98,0.72
		l0.06,0.05l-0.65,0.48c0,0-1.81-0.58-2.14-1.97c-0.26-1.08,0.24-1.24,0.09-1.61c-0.08-0.19-0.64-0.27-0.81-0.15
		c-0.36,0.28-0.05,0.74-0.76,1.65c-0.71,0.91-1.79,0.67-1.79,0.67c0.12,0.36,0.38,0.64,0.71,0.8c0,0,0,0,0,0v2.58l0.42-0.29v-2.16
		c0.06,0.01,0.12,0.02,0.18,0.02c0.3,0.01,0.62,0.05,0.94,0.15v1.21l0.14-0.1l0.28-0.8v-0.14l0,0c0.01,0.01,0.03,0.01,0.04,0.02
		l-0.32,0.92l-10.94,7.55l-9.33-6.43v-2.51c0.35-0.16,0.64-0.45,0.77-0.83c0,0-1.08,0.24-1.79-0.67c-0.71-0.91-0.4-1.37-0.76-1.65
		c-0.16-0.13-0.73-0.04-0.81,0.15c-0.16,0.37,0.34,0.53,0.09,1.61c-0.33,1.39-2.14,1.97-2.14,1.97l-0.65-0.48l0.06-0.05l-0.98-0.72
		l-0.02,0.08l-0.17-0.13L36,56.82l-0.97-0.72l-0.08,0.04l-0.32-0.24l0.01-0.09l-1.08-0.8l-0.08,0.04l-0.27-0.2l0-0.1l-1.55-1.14
		l0,0.1l-0.22-0.16l-0.81-0.98c-0.88-1.05-2.54-1.04-3.33,0.09c-0.01,0.01-0.02,0.03-0.03,0.04c-0.77,1.13-0.2,2.7,1.09,3.15
		l1.2,0.42l6.52,4.23c0,0,0.1,1.9-1.09,2.7c-0.92,0.62-1.25,0.21-1.54,0.49c-0.15,0.14-0.03,0.7,0.15,0.81
		c0.39,0.24,0.71-0.21,1.81,0.13c1.1,0.34,1.26,1.44,1.26,1.44c0.46-0.38,0.62-1,0.43-1.56c-0.15-0.42-0.26-0.94-0.17-1.43
		l0.98-0.02l9.53,6.57l-0.12-0.09l-5.76,3.97c0,0-4.36,2.52-4.24,5.78c0,0,1.39-2.42,2.3-3.6l8.31-5.73l13.66,9.42
		c1.61,0.47,3.33,0.66,4.4-0.09L40.27,61.51c-0.09-0.6-0.77-2.3-0.43-2.89l0.25,0.7c0.02,0.07,0.07,0.13,0.13,0.17l23.47,16.19
		c0.91,1.17,2.3,3.6,2.3,3.6c0.12-3.26-4.24-5.78-4.24-5.78l-5.76-3.97l9.41-6.49l0.98,0.02c0.09,0.49-0.02,1.01-0.17,1.43
		c-0.19,0.56-0.03,1.18,0.43,1.56c0,0,0.16-1.1,1.26-1.44c1.1-0.34,1.43,0.11,1.82-0.13c0.17-0.11,0.29-0.66,0.15-0.81
		c-0.29-0.28-0.61,0.13-1.54-0.49c-1.19-0.8-1.09-2.7-1.09-2.7l6.52-4.23l1.2-0.42C76.25,55.4,76.83,53.84,76.05,52.71L76.05,52.71
		L76.05,52.71z M35.96,59.92L35.96,59.92l-0.6-0.39l0.21-0.7l-0.59,0.46l-0.8-0.52l0.15-0.96l-0.85,0.5l-0.35-0.22l0.03-1.18
		l-1.12,0.47l-0.45-0.29l0.02-1.25l-1.18,0.5l-0.38-0.25c0.11-0.31,0.27-0.63,0.49-0.95c0.32-0.46,0.68-0.83,0.92-1.04l0.18,0.14
		l-0.03,1.61l1.41-0.59l0.17,0.13l-0.03,1.53l1.34-0.57l0.05,0.04l-0.22,1.44l1.21-0.71l0.44,0.33l-0.41,1.4l1.13-0.88l0.42,0.31
		L35.96,59.92L35.96,59.92z M39.91,57.76L39.91,57.76l-0.75,0.78c-0.26,0.27-0.4,0.65-0.38,1.03l0,0.07c0.02,0.3-0.07,0.6-0.24,0.85
		c-0.17,0.25-0.42,0.44-0.71,0.53l-0.06,0.02c-0.36,0.11-0.66,0.37-0.83,0.72l-0.46,0.97l0,0.01l-0.81,0.59
		c0.94-1,0.98-2.6,0.98-2.6l0.69-0.45c0.3-0.2,0.51-0.5,0.59-0.85l0.17-0.8c0,0,1.47-0.6,2.08-1.84L39.91,57.76L39.91,57.76z
		 M40.43,58.18L40.43,58.18l-0.04-0.12c0.01-0.01,0.03-0.01,0.04-0.02V58.18L40.43,58.18z M41.9,59.8L41.9,59.8l-1.05-0.73v-1.22
		c0.31-0.1,0.64-0.14,0.94-0.15c0.04,0,0.08-0.01,0.12-0.01V59.8L41.9,59.8z M63.04,61.51L63.04,61.51l-9.33,6.44l-1.45-1
		l10.82-7.46c0.06-0.04,0.11-0.1,0.13-0.17l0.25-0.7C63.81,59.21,63.13,60.91,63.04,61.51L63.04,61.51z M67.64,63.32L67.64,63.32
		l-0.81-0.59l0-0.01l-0.46-0.97c-0.16-0.34-0.46-0.6-0.83-0.72l-0.06-0.02c-0.29-0.09-0.54-0.28-0.71-0.53
		c-0.17-0.25-0.26-0.55-0.24-0.85l0-0.07c0.02-0.38-0.12-0.75-0.38-1.03l-0.75-0.78l-0.27-0.97c0.61,1.24,2.08,1.84,2.08,1.84
		l0.17,0.8c0.08,0.35,0.29,0.66,0.59,0.85l0.69,0.44C66.65,60.72,66.7,62.31,67.64,63.32L67.64,63.32z M72.88,56.33L72.88,56.33
		l-1.18-0.5l0.02,1.25l-0.45,0.29l-1.12-0.48l0.03,1.18l-0.35,0.22l-0.85-0.5l0.15,0.96l-0.8,0.52l-0.59-0.46l0.21,0.7l-0.6,0.39
		l-1.15-1.66l0.42-0.31l1.13,0.88l-0.41-1.4l0.44-0.33l1.21,0.71l-0.22-1.44l0.05-0.04l1.34,0.57l-0.03-1.53l0.17-0.13l1.41,0.59
		l-0.03-1.61l0.18-0.14c0.23,0.22,0.6,0.58,0.92,1.04c0.22,0.32,0.39,0.64,0.49,0.95L72.88,56.33L72.88,56.33z M65.16,55.57
		L65.16,55.57c0.2,0.06,0.84-0.02,0.84-0.02l-0.98-1.64l1.26,1.19c0,0-0.02-0.9-0.08-1.18c-0.43-1.74-2.41-1.63-2.41-1.57
		C63.74,52.37,63.9,55.17,65.16,55.57L65.16,55.57z M65.16,48.04L65.16,48.04c0.2,0.06,0.84-0.02,0.84-0.02l-0.98-1.64l1.26,1.19
		c0,0-0.02-0.9-0.08-1.18c-0.43-1.74-2.41-1.63-2.41-1.57C63.74,44.84,63.9,47.64,65.16,48.04L65.16,48.04z M65.16,51.81
		L65.16,51.81c0.2,0.06,0.84-0.02,0.84-0.02l-0.98-1.64l1.26,1.19c0,0-0.02-0.9-0.08-1.18c-0.43-1.74-2.41-1.63-2.41-1.57
		C63.74,48.6,63.9,51.41,65.16,51.81L65.16,51.81z M67.64,55.53L67.64,55.53c1.26-0.45,1.36-3.25,1.32-3.26
		c0-0.06-1.99-0.09-2.38,1.66c-0.06,0.28-0.06,1.19-0.06,1.19l1.24-1.24l-0.95,1.67C66.8,55.54,67.43,55.6,67.64,55.53L67.64,55.53z
		 M68.96,48.5L68.96,48.5c0-0.06-1.99-0.09-2.38,1.66c-0.06,0.28-0.06,1.19-0.06,1.19l1.24-1.24l-0.95,1.67c0,0,0.64,0.06,0.84-0.01
		C68.89,51.32,69,48.51,68.96,48.5L68.96,48.5z M66.57,42.63L66.57,42.63c-0.06,0.28-0.06,1.19-0.06,1.19l1.24-1.24l-0.95,1.67
		c0,0,0.64,0.06,0.84-0.01c1.26-0.45,1.36-3.25,1.32-3.26C68.95,40.92,66.97,40.88,66.57,42.63L66.57,42.63z M66.16,41.62
		L66.16,41.62l0.21-2.13l0.21,2.13c0,0,0.46-0.62,0.57-0.88c0.63-1.61-0.75-3.63-0.78-3.59c-0.03-0.04-1.41,1.99-0.77,3.6
		C65.7,41.01,66.16,41.62,66.16,41.62L66.16,41.62z M65.16,44.28L65.16,44.28c0.2,0.06,0.84-0.02,0.84-0.02l-0.98-1.64l1.26,1.19
		c0,0-0.02-0.9-0.08-1.18c-0.43-1.74-2.41-1.63-2.41-1.57C63.74,41.08,63.9,43.88,65.16,44.28L65.16,44.28z M68.96,44.74
		L68.96,44.74c0-0.06-1.99-0.09-2.38,1.66c-0.06,0.28-0.06,1.19-0.06,1.19l1.24-1.24l-0.95,1.67c0,0,0.64,0.06,0.84-0.01
		C68.89,47.55,69,44.74,68.96,44.74L68.96,44.74z M37.14,42.63L37.14,42.63c-0.06,0.28-0.06,1.19-0.06,1.19l1.24-1.24l-0.95,1.67
		c0,0,0.64,0.06,0.84-0.01c1.26-0.45,1.36-3.25,1.32-3.26C39.52,40.92,37.54,40.88,37.14,42.63L37.14,42.63z M38.2,55.53L38.2,55.53
		c1.26-0.45,1.36-3.25,1.32-3.26c0-0.06-1.99-0.09-2.38,1.66c-0.06,0.28-0.06,1.19-0.06,1.19l1.24-1.24l-0.95,1.67
		C37.37,55.54,38,55.6,38.2,55.53L38.2,55.53z M39.53,48.5L39.53,48.5c0-0.06-1.99-0.09-2.38,1.66c-0.06,0.28-0.06,1.19-0.06,1.19
		l1.24-1.24l-0.95,1.67c0,0,0.64,0.06,0.84-0.01C39.46,51.32,39.57,48.51,39.53,48.5L39.53,48.5z M39.53,44.74L39.53,44.74
		c0-0.06-1.99-0.09-2.38,1.66c-0.06,0.28-0.06,1.19-0.06,1.19l1.24-1.24l-0.95,1.67c0,0,0.64,0.06,0.84-0.01
		C39.46,47.55,39.57,44.74,39.53,44.74L39.53,44.74z M35.73,51.81L35.73,51.81c0.2,0.06,0.84-0.02,0.84-0.02l-0.98-1.64l1.26,1.19
		c0,0-0.02-0.9-0.09-1.18c-0.43-1.74-2.41-1.63-2.41-1.57C34.31,48.6,34.46,51.41,35.73,51.81L35.73,51.81z M35.73,44.28
		L35.73,44.28c0.2,0.06,0.84-0.02,0.84-0.02l-0.98-1.64l1.26,1.19c0,0-0.02-0.9-0.09-1.18c-0.43-1.74-2.41-1.63-2.41-1.57
		C34.31,41.08,34.46,43.88,35.73,44.28L35.73,44.28z M36.73,41.62L36.73,41.62l0.21-2.13l0.21,2.13c0,0,0.46-0.62,0.57-0.88
		c0.63-1.61-0.75-3.63-0.78-3.59c-0.03-0.04-1.41,1.99-0.77,3.6C36.27,41.01,36.73,41.62,36.73,41.62L36.73,41.62z M35.73,55.57
		L35.73,55.57c0.2,0.06,0.84-0.02,0.84-0.02l-0.98-1.64l1.26,1.19c0,0-0.02-0.9-0.09-1.18c-0.43-1.74-2.41-1.63-2.41-1.57
		C34.31,52.37,34.46,55.17,35.73,55.57L35.73,55.57z M35.73,48.04L35.73,48.04c0.2,0.06,0.84-0.02,0.84-0.02l-0.98-1.64l1.26,1.19
		c0,0-0.02-0.9-0.09-1.18c-0.43-1.74-2.41-1.63-2.41-1.57C34.31,44.84,34.46,47.64,35.73,48.04L35.73,48.04z M44.07,55.77
		L44.07,55.77c-0.3,0-0.54,0.24-0.54,0.54v1.23c0,0.3,0.24,0.54,0.54,0.54c0.3,0,0.54-0.24,0.54-0.54v-1.23
		C44.6,56.01,44.36,55.77,44.07,55.77L44.07,55.77z M57.79,55.68L57.79,55.68v-1.23c0-0.3-0.24-0.54-0.54-0.54
		c-0.3,0-0.54,0.24-0.54,0.54v1.23c0,0.3,0.24,0.54,0.54,0.54C57.55,56.21,57.79,55.97,57.79,55.68L57.79,55.68z M58.71,56.31
		L58.71,56.31v1.23c0,0.3,0.24,0.54,0.54,0.54c0.3,0,0.54-0.24,0.54-0.54v-1.23c0-0.3-0.24-0.54-0.54-0.54
		C58.95,55.77,58.71,56.01,58.71,56.31L58.71,56.31z M61.85,49.75L61.85,49.75c0.06-0.09,0.09-0.19,0.08-0.29
		c0.01-0.1-0.01-0.21-0.08-0.29c0,0-0.01-0.01-0.01-0.01c-0.39-1.23-0.97-1.64-1.38-1.76c0.08-1.2-0.12-2.07-0.58-2.59
		c-0.4-0.45-0.88-0.52-1.14-0.52c-0.12,0-0.19,0.01-0.22,0.02c-0.15,0.03-0.27,0.14-0.32,0.28c-0.05,0.15-0.01,0.31,0.09,0.42
		c0.55,0.6,0.19,1.48-0.02,1.88l-4.2-0.45V43.1l0.09-0.25c0.22-0.22,0.73-0.63,1.18-0.63c0.27,0,0.5,0.15,0.71,0.47
		c0.08,0.12,0.21,0.19,0.35,0.19c0.03,0,0.06,0,0.1-0.01c0.17-0.04,0.3-0.18,0.32-0.36c0.01-0.05,0.14-1.22-0.6-2.04
		c-0.46-0.52-1.13-0.78-1.99-0.78c-0.16,0-0.32,0.01-0.49,0.03c-0.1-0.59-0.48-1.55-1.8-2.22c-0.04-0.06-0.1-0.1-0.17-0.13
		c-0.05-0.02-0.11-0.03-0.17-0.03c-0.08,0-0.16,0.02-0.23,0.07c-0.02,0.01-0.03,0.02-0.05,0.04c-0.02,0.02-0.04,0.04-0.05,0.06
		c-1.3,0.67-1.64,1.62-1.72,2.21c-0.16-0.02-0.32-0.02-0.46-0.02c-0.87,0-1.54,0.26-1.99,0.78c-0.73,0.83-0.6,2-0.6,2.04
		c0.02,0.18,0.15,0.32,0.32,0.36c0.03,0.01,0.07,0.01,0.1,0.01c0.14,0,0.27-0.07,0.35-0.19c0.21-0.31,0.44-0.47,0.71-0.47
		c0.42,0,0.89,0.36,1.13,0.58v3.63l-4.06,0.45c-0.21-0.4-0.57-1.28-0.02-1.88c0.1-0.11,0.14-0.27,0.09-0.42
		c-0.05-0.15-0.17-0.25-0.32-0.28c-0.02,0-0.1-0.02-0.22-0.02c-0.25,0-0.74,0.07-1.14,0.52c-0.47,0.52-0.66,1.39-0.58,2.59
		c-0.42,0.13-1,0.54-1.38,1.76c0,0-0.01,0.01-0.01,0.01c-0.06,0.09-0.09,0.19-0.08,0.29c-0.01,0.1,0.01,0.21,0.08,0.29
		c0,0,0.01,0.01,0.01,0.01c0.14,0.46,0.43,0.97,0.43,0.97v5.32c0.14,0.07,0.29,0.12,0.42,0.15v-4.98c0.19,0.16,0.37,0.25,0.53,0.3
		c-0.08,1.2,0.12,2.07,0.58,2.59c0.4,0.45,0.88,0.52,1.14,0.52c0.12,0,0.19-0.01,0.22-0.02c0.15-0.03,0.27-0.14,0.32-0.28
		c0.05-0.15,0.01-0.31-0.09-0.42c-0.62-0.67-0.08-1.72,0.1-2.01l0.04-0.02l3.95,0.46v5.87c-0.24,0.23-0.71,0.58-1.13,0.58
		c-0.27,0-0.5-0.15-0.71-0.47c-0.08-0.12-0.21-0.19-0.35-0.19c-0.03,0-0.07,0-0.1,0.01c-0.17,0.04-0.3,0.18-0.32,0.36
		c-0.01,0.05-0.14,1.22,0.6,2.04c0.46,0.52,1.13,0.78,1.99,0.78c0.15,0,0.3-0.01,0.46-0.02c0.08,0.6,0.42,1.55,1.72,2.21
		c0.02,0.02,0.03,0.04,0.05,0.06c0.02,0.01,0.03,0.03,0.05,0.04c0.03,0.02,0.07,0.04,0.1,0.05l0,0l0,0
		c0.04,0.01,0.09,0.02,0.13,0.02h0c0.04,0,0.08-0.01,0.12-0.02c0,0,0,0,0,0h0c0.04-0.01,0.07-0.03,0.11-0.05
		c0.02-0.01,0.03-0.02,0.05-0.04c0.02-0.02,0.04-0.04,0.05-0.06c1.31-0.67,1.69-1.63,1.8-2.22c0.17,0.02,0.33,0.03,0.49,0.03
		c0.87,0,1.54-0.26,1.99-0.78c0.73-0.83,0.6-2,0.6-2.04c-0.02-0.18-0.15-0.32-0.32-0.36c-0.03-0.01-0.07-0.01-0.1-0.01
		c-0.14,0-0.27,0.07-0.35,0.19c-0.21,0.31-0.44,0.47-0.71,0.47c-0.46,0-0.97-0.42-1.18-0.63l-0.09-0.25v-5.56l4.09-0.46l0.04,0.02
		c0.17,0.29,0.72,1.34,0.1,2.01c-0.1,0.11-0.14,0.27-0.09,0.42c0.05,0.15,0.17,0.25,0.32,0.28c0.02,0,0.1,0.02,0.22,0.02
		c0.25,0,0.74-0.07,1.14-0.52c0.47-0.52,0.66-1.39,0.58-2.59c0.14-0.04,0.3-0.12,0.47-0.25v4.94c0.13-0.03,0.28-0.07,0.42-0.14
		v-5.25h0c0.18-0.26,0.35-0.6,0.5-1.06C61.84,49.76,61.84,49.76,61.85,49.75L61.85,49.75z M51.6,63.22L51.6,63.22
		c-1.89-0.88-1.64-2.39-1.64-2.39c-0.33,0.06-0.62,0.08-0.88,0.08c-2.46,0-2.17-2.35-2.17-2.35c0.32,0.49,0.7,0.65,1.06,0.65
		c0.81,0,1.55-0.83,1.55-0.83v-6.42l-4.46-0.52l-0.25,0.14c0,0-1.08,1.57-0.11,2.61c0,0-0.05,0.01-0.13,0.01
		c-0.41,0-1.58-0.24-1.26-3.06c0,0-0.04,0.01-0.11,0.01c-0.26,0-0.94-0.16-1.37-1.65l-0.03,0c0-0.02,0.01-0.03,0.01-0.05
		c0-0.02-0.01-0.03-0.01-0.05l0.03,0c0.43-1.5,1.11-1.65,1.37-1.65c0.07,0,0.11,0.01,0.11,0.01c-0.31-2.82,0.86-3.06,1.26-3.06
		c0.08,0,0.13,0.01,0.13,0.01c-0.97,1.05,0.11,2.61,0.11,2.61l4.71-0.52v-4.19c0,0-0.75-0.83-1.55-0.83c-0.36,0-0.74,0.17-1.06,0.65
		c0,0-0.29-2.35,2.17-2.35c0.26,0,0.55,0.03,0.88,0.09c0,0-0.25-1.51,1.64-2.39V63.22L51.6,63.22z M61.16,48.62L61.16,48.62
		c0.06,0.12,0.13,0.26,0.19,0.43l-2.4,3.66c-0.04-0.18-0.09-0.34-0.15-0.49L61.16,48.62L61.16,48.62z M59.47,45L59.47,45L59,45.73
		c-0.01-0.18-0.04-0.37-0.11-0.54v0l0.25-0.39C59.25,44.84,59.36,44.9,59.47,45L59.47,45z M58.73,44.71L58.73,44.71
		c0.05,0,0.1,0.01,0.17,0.02l-0.14,0.21c-0.05-0.07-0.1-0.15-0.17-0.21C58.6,44.72,58.65,44.71,58.73,44.71L58.73,44.71z
		 M56.4,42.45L56.4,42.45c-0.04-0.06-0.09-0.12-0.13-0.17l0,0l0.13-0.2C56.41,42.3,56.4,42.45,56.4,42.45L56.4,42.45z M56.36,41.7
		L56.36,41.7l-0.26,0.4l0,0c-0.11-0.09-0.22-0.16-0.33-0.21l0.44-0.67C56.28,41.38,56.33,41.55,56.36,41.7L56.36,41.7z M56.07,40.98
		L56.07,40.98l-0.55,0.84l0,0c-0.06-0.01-0.13-0.02-0.19-0.02c-0.1,0-0.19,0.01-0.29,0.03h0l0.77-1.18
		C55.93,40.75,56.01,40.86,56.07,40.98L56.07,40.98z M52.05,38.35L52.05,38.35l0.14-0.21c0.11,0.08,0.22,0.16,0.31,0.24l-0.44,0.68
		V38.35L52.05,38.35z M52.05,39.5L52.05,39.5l0.62-0.95c0.1,0.1,0.19,0.21,0.26,0.31l-0.88,1.34V39.5L52.05,39.5z M52.05,40.65
		L52.05,40.65l1.02-1.56c0.08,0.15,0.14,0.3,0.18,0.43l-1.2,1.83V40.65L52.05,40.65z M52.05,41.8L52.05,41.8l1.28-1.95
		c0.03,0.2,0.02,0.33,0.02,0.33c0.09-0.02,0.17-0.02,0.25-0.03l-1.55,2.36V41.8L52.05,41.8z M52.05,42.95L52.05,42.95l1.86-2.83
		c-0.1,0.01-0.2,0.02-0.31,0.03c0.22-0.03,0.44-0.05,0.63-0.05c0.05,0,0.1,0.01,0.15,0.01l-2.33,3.55V42.95L52.05,42.95z
		 M52.05,44.1L52.05,44.1l2.61-3.97c0.15,0.02,0.28,0.05,0.41,0.09l-3.01,4.59V44.1L52.05,44.1z M52.05,45.25L52.05,45.25l3.25-4.95
		c0.13,0.06,0.24,0.12,0.34,0.19l-0.96,1.47c-0.51,0.24-0.89,0.66-0.89,0.66l-0.14,0.41v0.5l-1.59,2.43V45.25L52.05,45.25z
		 M52.05,46.4L52.05,46.4l1.59-2.43v0.71l-1.59,2.43V46.4L52.05,46.4z M52.05,47.55L52.05,47.55l1.59-2.43v0.71l-1.59,2.43V47.55
		L52.05,47.55z M52.05,48.7L52.05,48.7l1.59-2.43v0.53l0.33,0.04l-0.23-0.02l-1.7,2.59V48.7L52.05,48.7z M52.05,49.86L52.05,49.86
		l1.97-3.01l0.43,0.05l-2.41,3.67V49.86L52.05,49.86z M52.05,51.01L52.05,51.01l2.68-4.08l0.43,0.05l-3.11,4.74V51.01L52.05,51.01z
		 M52.05,52.16L52.05,52.16L55.43,47l-0.17-0.02l0.61,0.07l-3.82,5.82V52.16L52.05,52.16z M52.05,53.31L52.05,53.31l4.09-6.23
		l-0.25-0.03l0.69,0.07l-4.52,6.89V53.31L52.05,53.31z M52.05,54.46L52.05,54.46l1.59-2.43v0.71l-1.59,2.43V54.46L52.05,54.46z
		 M52.05,55.61L52.05,55.61l1.59-2.43v0.71l-1.59,2.43V55.61L52.05,55.61z M52.05,56.76L52.05,56.76l1.59-2.43v0.71l-1.59,2.43
		V56.76L52.05,56.76z M52.05,57.91L52.05,57.91l1.59-2.43v0.71l-1.59,2.43V57.91L52.05,57.91z M52.05,59.06L52.05,59.06l1.59-2.43
		v0.71l-1.59,2.43V59.06L52.05,59.06z M52.05,60.21L52.05,60.21l1.59-2.43v0.2l0.12,0.34l-1.71,2.61V60.21L52.05,60.21z
		 M52.37,62.74L52.37,62.74c0.23-0.18,0.4-0.37,0.54-0.56C52.77,62.37,52.59,62.56,52.37,62.74L52.37,62.74z M55.62,60.53
		L55.62,60.53l0.7-1.07C56.23,59.83,56.03,60.24,55.62,60.53L55.62,60.53z M56.4,58.56L56.4,58.56c0,0,0.01,0.13,0.01,0.33
		l-1.22,1.86c-0.16,0.06-0.34,0.11-0.55,0.14l1.16-1.77h0C56,59.02,56.21,58.85,56.4,58.56L56.4,58.56z M55.33,59.22L55.33,59.22
		c0.03,0,0.07,0,0.1-0.01l-1.11,1.7c0.03,0,0.06,0,0.09-0.01c-0.07,0-0.13,0.01-0.2,0.01c-0.11,0-0.23-0.01-0.36-0.02L55,59.17
		c-0.06-0.01-0.11-0.04-0.16-0.05C55,59.17,55.16,59.22,55.33,59.22L55.33,59.22z M54.76,59.09L54.76,59.09l-1.16,1.77
		c-0.08-0.01-0.16-0.02-0.25-0.03c0,0,0.02,0.2-0.05,0.5l-0.93,1.42c-0.1,0.08-0.2,0.15-0.32,0.23v-0.45l2.37-3.61h0
		C54.53,58.97,54.64,59.04,54.76,59.09L54.76,59.09z M54.22,58.77L54.22,58.77l-2.17,3.3v-0.71l1.87-2.84l0,0
		C53.99,58.59,54.09,58.68,54.22,58.77L54.22,58.77z M53.68,51.97L53.68,51.97l3.16-4.81l0.63,0.07l-0.2-0.02l-3.09,4.71l0,0
		L53.68,51.97L53.68,51.97z M54.5,51.88L54.5,51.88l3.05-4.64l0.7,0.08l-0.27-0.03L55,51.82L54.5,51.88L54.5,51.88z M55.32,51.78
		L55.32,51.78l2.93-4.48l0.24,0.03c0,0,0.33-0.48,0.46-1.09l0,0l0.69-1.05c0.08,0.11,0.14,0.24,0.21,0.4l-4.03,6.14L55.32,51.78
		L55.32,51.78z M55.95,51.71L55.95,51.71l0.18-0.02l3.81-5.8c0.04,0.17,0.08,0.35,0.09,0.57l-3.4,5.18L55.95,51.71L55.95,51.71z
		 M56.87,51.61L56.87,51.61l0.08-0.01l3.1-4.73c0,0.23-0.01,0.49-0.04,0.77l-2.56,3.9l0.31-0.03L56.87,51.61L56.87,51.61z
		 M58.49,51.59L58.49,51.59l-0.25-0.14l-0.48,0.05l2.45-3.74c0.1,0.02,0.23,0.05,0.37,0.15l-2.33,3.55l0.21,0.12l2.3-3.51
		c0.09,0.08,0.17,0.18,0.26,0.32l-2.34,3.57l0,0C58.58,51.73,58.49,51.59,58.49,51.59L58.49,51.59z M59.04,54.17L59.04,54.17
		L60,52.69C59.86,53.72,59.39,54.06,59.04,54.17L59.04,54.17z M60,52.69L60,52.69c0.02-0.15,0.03-0.32,0.04-0.5
		C60.04,52.37,60.03,52.54,60,52.69L60,52.69z M58.72,54.21L58.72,54.21c-0.07,0-0.12-0.01-0.12-0.01c0.32-0.34,0.41-0.75,0.4-1.13
		l0,0l1.03-1.57c0.02,0.25,0.02,0.48,0.02,0.68L58.72,54.21L58.72,54.21z M61.5,49.51L61.5,49.51l-0.03,0
		c-0.43,1.5-1.11,1.65-1.37,1.65c0.04,0,0.1-0.01,0.16-0.02l1.19-1.81c0.01,0.03,0.02,0.05,0.02,0.08l0.03,0
		c0,0.02-0.01,0.03-0.01,0.05C61.49,49.48,61.5,49.49,61.5,49.51L61.5,49.51z M47.96,57.66L47.96,57.66c0.3,0,0.54-0.24,0.54-0.54
		V55.9c0-0.3-0.24-0.54-0.54-0.54c-0.3,0-0.54,0.24-0.54,0.54v1.23C47.42,57.42,47.66,57.66,47.96,57.66L47.96,57.66z M40.85,54.7
		L40.85,54.7V38.35c0.6,0.32,1.38,0.24,1.89-0.25l1.43-1.36c0.46-0.44,1.2-0.44,1.66,0l1.36,1.29c0.62,0.59,1.63,0.59,2.25,0
		l1.36-1.29c0.46-0.44,1.2-0.44,1.66,0l1.43,1.36c0.31,0.29,0.72,0.44,1.12,0.44c0.41,0,0.81-0.15,1.12-0.44l1.43-1.36
		c0.46-0.44,1.2-0.44,1.66,0l1.36,1.29c0.51,0.49,1.28,0.56,1.89,0.25V54.7c0.11-0.38,0.08-0.62,0.3-0.8
		c0.03-0.02,0.07-0.04,0.12-0.05V37.47c0-0.86-0.06-1.66-0.18-2.38c-0.03-0.15-0.13-0.27-0.27-0.32c-1.54-0.57-6.77-1.31-10.77-1.31
		c-4.01,0-9.23,0.73-10.77,1.31c-0.14,0.05-0.24,0.18-0.27,0.32c-0.12,0.72-0.19,1.52-0.19,2.38v16.39
		c0.05,0.01,0.09,0.02,0.12,0.05C40.77,54.08,40.74,54.32,40.85,54.7L40.85,54.7z M61.54,36.69L61.54,36.69
		c0.25,0,0.46,0.2,0.46,0.46c0,0.25-0.2,0.46-0.46,0.46s-0.46-0.2-0.46-0.46C61.08,36.9,61.28,36.69,61.54,36.69L61.54,36.69z
		 M54.95,36.48L54.95,36.48c0.25,0,0.46,0.2,0.46,0.46c0,0.25-0.2,0.46-0.46,0.46c-0.25,0-0.46-0.2-0.46-0.46
		C54.49,36.69,54.7,36.48,54.95,36.48L54.95,36.48z M48.36,36.48L48.36,36.48c0.25,0,0.46,0.2,0.46,0.46c0,0.25-0.2,0.46-0.46,0.46
		c-0.25,0-0.46-0.2-0.46-0.46C47.9,36.69,48.11,36.48,48.36,36.48L48.36,36.48z M41.77,36.69L41.77,36.69c0.25,0,0.46,0.2,0.46,0.46
		c0,0.25-0.2,0.46-0.46,0.46c-0.25,0-0.46-0.2-0.46-0.46C41.32,36.9,41.52,36.69,41.77,36.69L41.77,36.69z M57.84,60.7L57.84,60.7
		c0.3,0,0.54-0.24,0.54-0.54v-1.23c0-0.3-0.24-0.54-0.54-0.54s-0.54,0.24-0.54,0.54v1.23C57.31,60.46,57.55,60.7,57.84,60.7
		L57.84,60.7z M54.82,55.9L54.82,55.9v1.23c0,0.3,0.24,0.54,0.54,0.54c0.3,0,0.54-0.24,0.54-0.54V55.9c0-0.3-0.24-0.54-0.54-0.54
		C55.06,55.36,54.82,55.6,54.82,55.9L54.82,55.9z M44.93,58.94L44.93,58.94v1.23c0,0.3,0.24,0.54,0.54,0.54
		c0.3,0,0.54-0.24,0.54-0.54v-1.23c0-0.3-0.24-0.54-0.54-0.54C45.17,58.4,44.93,58.64,44.93,58.94L44.93,58.94z M46.59,55.68
		L46.59,55.68v-1.23c0-0.3-0.24-0.54-0.54-0.54c-0.3,0-0.54,0.24-0.54,0.54v1.23c0,0.3,0.24,0.54,0.54,0.54
		C46.35,56.21,46.59,55.97,46.59,55.68L46.59,55.68z"/>
</g>
</svg>
