<?xml version="1.0" encoding="UTF-8"?>
<!DOCTYPE svg PUBLIC "-//W3C//DTD SVG 1.0//EN" "http://www.w3.org/TR/2001/REC-SVG-20010904/DTD/svg10.dtd">
<!-- Creator: CorelDRAW 2019 (64-Bit) -->
<svg xmlns="http://www.w3.org/2000/svg" xml:space="preserve" width="68.2102mm" height="67.9336mm" version="1.0" style="shape-rendering:geometricPrecision; text-rendering:geometricPrecision; image-rendering:optimizeQuality; fill-rule:evenodd; clip-rule:evenodd"
viewBox="0 0 360085 358624"
 xmlns:xlink="http://www.w3.org/1999/xlink"
 xmlns:xodm="http://www.corel.com/coreldraw/odm/2003">
 <defs>
  <style type="text/css">
   <![CDATA[
    .fil0 {fill:#2B2A29}
   ]]>
  </style>
 </defs>
 <g id="Слой_x0020_1">
  <metadata id="CorelCorpID_0Corel-Layer"/>
  <path class="fil0" d="M339 196143c1586,261 4341,25 6161,80 681,20 1355,-41 2052,-66 802,-31 1302,71 2054,50l4105 -26c677,-26 1390,-95 2051,-58 1358,75 2761,-111 4107,25 700,71 1316,14 2053,-11l8210 -48c752,-20 1251,82 2054,51l12315 -69c474,3 571,68 1028,81 1000,30 2093,-155 3078,-77 1469,117 2659,-108 4106,30l11292 -4c490,25 667,-48 1141,31 242,699 428,1408 597,2148l1113 4296c1227,4279 2202,8668 3614,12882 222,667 488,1439 686,2145 1534,5488 5263,14330 8284,19228 3640,5902 6092,9359 10441,14823 3489,4383 7721,8832 11761,12613 6888,6443 13357,11273 21272,15359 1755,906 3407,1756 5215,2453 611,235 1340,469 1850,753 158,681 34,1456 26,2167 -9,782 57,1390 62,2165 2,236 -1,211 -11,456 -96,2148 129,5552 31,7298l-32 5589c53,1521 -25,2807 33,4333l-68 13346c-2220,-604 -4373,-1455 -6576,-2241 -3408,-1215 -6577,-2860 -9841,-4369 -1149,-531 -2320,-1219 -3367,-1793 -6901,-3778 -13610,-7890 -19928,-12674 -1189,-902 -2069,-1611 -3275,-2457l-6803 -5610c-1197,-1130 -2140,-1782 -3407,-2967 -5791,-5418 -15327,-17015 -19782,-23981 -5007,-7829 -7903,-11613 -11714,-20711l-1061 -2588c-602,-1825 -2230,-6675 -3505,-7867 -1582,-1480 -2995,-2038 -5091,-2167 -2079,-128 -4222,-313 -6282,-256l-4329 143c-192,-2 -284,-7 -457,-8l-5927 111c-1522,50 -2811,-20 -4333,30l-8550 112c-59,485 395,2074 512,2721 327,1798 924,3663 1429,5427l2793 8348c699,1884 1399,3644 2209,5515 2473,5711 8208,16690 11879,21846l5520 8029c2595,3629 5422,7495 8363,10900 865,1001 1540,1762 2349,2773 2513,3145 7090,8264 9704,10742l2530 2654c706,868 1784,1832 2778,2759 1020,949 1493,1602 2441,2504l243 227c6785,6300 8886,8059 16564,13499l4664 3027c8785,5436 17415,10124 26830,14447 4112,1887 8359,3779 12607,5250 2585,896 5095,1974 7734,2757 3681,1091 7298,2261 11055,3141 6172,1444 12343,2672 18689,2973 525,25 946,82 1488,129 630,56 998,-30 1595,-13 1002,31 2189,183 3192,-50 329,-1210 -23,-8563 42,-10722 20,-646 88,-912 60,-1599l-26 -10264c2,-214 8,-242 7,-457l-71 -16991c104,-1104 -2,-1997 -33,-3079l-2 -13800c-12,-315 -25,-485 -26,-797l-172 -40939 -9097 -3027c-7087,-2685 -13896,-5634 -20306,-9915 -617,-412 -1094,-669 -1747,-1094 -678,-441 -1205,-876 -1869,-1338 -2525,-1754 -5094,-3962 -7499,-5980 -1342,-1125 -2193,-2279 -3545,-3533 -3539,-3284 -8453,-10160 -10589,-14134 -614,-1144 -1305,-2305 -1857,-3474 -3232,-6847 -5164,-12092 -6799,-19734 -1395,-6511 -1810,-13279 -1886,-19897l43 -1369c27,-3851 288,-9529 897,-13259 -655,-108 -1244,2 -1938,11l-10264 -6c-1439,46 -2650,-33 -4106,22l-5132 19c-422,-4 -592,-43 -1028,-46 -1727,-12 -4541,206 -6157,52 -1354,-128 -2643,88 -3991,11 -34,-2 -81,-5 -115,-7 -34,-2 -81,-4 -114,-7l-229 -11c-33,-2 -81,-4 -114,-5 -1856,-65 -5000,178 -6727,82l-5134 -51c-5469,213 -10950,-108 -16421,90 -806,28 -3654,95 -4111,-149l43 -3766c70,-2912 343,-5954 978,-8814 110,-495 150,-817 225,-1261 73,-441 174,-795 258,-1263 465,-2590 1250,-5171 1937,-7706 123,-454 176,-767 343,-1266l1197 -3802c1643,-4362 3108,-8684 5087,-12943l3612 -7647 7138 -13010c969,-1671 2208,-3397 3281,-5127 516,-833 1134,-1700 1745,-2567 5009,-7097 9163,-11364 14935,-17605 737,-797 1115,-961 1771,-1644 1236,-1289 2255,-2376 3531,-3534 5711,-5189 11416,-10202 17759,-14607 4617,-3207 9344,-6088 14310,-8622 1164,-594 2311,-1142 3590,-1753l8100 -3380c1069,-380 5961,-1855 6428,-2168 379,607 258,1482 239,2160l-49 8783c23,808 73,1468 86,2277l-22 16540c7,1378 202,4445 16,5587 -1103,739 -2763,1287 -4041,1926 -1306,648 -2647,1471 -4034,2153 -3856,1894 -13208,8717 -16165,11144 -554,455 -1424,1052 -2001,1540 -7013,5895 -11961,11709 -17219,19234 -839,1199 -1677,2414 -2416,3615 -2491,4051 -5160,8140 -7156,12440 -268,578 -786,1380 -936,1857 516,276 8114,233 9587,192 533,-15 639,43 1143,71 1685,95 3334,-91 5018,4l229 15c2654,149 5332,-110 7987,101 830,65 1549,-86 2395,0 853,86 1534,-47 2395,-21l3540 113c1543,-21 4657,-147 6048,80 5044,-8744 10421,-13034 18994,-18603 794,-516 1778,-1149 2682,-1644 5030,-2764 8130,-4246 13239,-6554 588,-266 787,-335 1350,-553 3523,-1358 7045,-2889 10709,-3785 428,-104 982,-225 1352,-456 153,-929 59,-3501 18,-4563l34 -7872c2,-46 10,-181 12,-227 9,-190 11,-169 12,-343l-20 -20073c1,-33 -1,-80 -1,-113l26 -3766c-117,-4151 37,-8161 -80,-12314 -17,-620 83,-877 74,-1486l3 -3078c5,-568 -29,-1023 -50,-1596 -26,-652 -9,-847 41,-1484 133,-1691 -151,-4295 -45,-6157 22,-395 28,-374 30,-799l5 -31592c-22,-553 -71,-1054 -54,-1594 23,-721 175,-855 1,-1598 -498,-82 -1113,-44 -1713,-91 -589,-47 -1205,18 -1824,37l-6368 553c-376,32 -529,77 -909,128l-7257 1259c-1222,225 -2432,491 -3625,771l-7237 1847c-10721,3040 -22275,7079 -32219,11971l-7176 3657c-572,281 -1166,641 -1793,976l-3579 2119c-687,375 -1133,641 -1790,1056 -9551,6047 -16054,10077 -24948,17912 -3677,3239 -7629,6969 -11560,10960l-8080 8638c-4698,5300 -9046,10759 -12474,15928 -1930,2912 -3670,5574 -5400,8505 -1693,2868 -3370,5565 -4778,8599 -973,2097 -2141,4144 -3040,6259 -154,363 -304,609 -512,1043l-1444 3241c-392,784 -554,1389 -906,2197 -1230,2833 -2297,5524 -3246,8435l-5171 16936c-391,1382 -710,2805 -1014,4254l-1747 8382c-585,2704 -946,5602 -1349,8372 -616,4212 -1001,8365 -1366,12591 -304,3511 -308,7467 -594,10512l-30 10493c61,1849 -2,6965 339,8429zm183550 -32877c848,229 1897,497 2767,900 3857,1781 6805,5215 8254,9114 350,941 583,1758 790,2711 1002,4650 178,10566 -3157,14132 -2190,2341 -3395,3252 -6468,4397 -942,351 -1757,585 -2711,791 -5388,1158 -10132,141 -14384,-3838 -977,-914 -1767,-1876 -2288,-2775 -275,-474 -648,-968 -884,-1453 -144,-298 -131,-353 -282,-675 -988,-2116 -1681,-4561 -1759,-6899 -10,-279 -7,-132 0,-342 9,-277 38,-362 45,-686 14,-627 -31,-831 42,-1484 670,-6028 4187,-10723 10032,-12879 371,-138 625,-220 1016,-332 219,-63 368,-117 564,-177l566 -130c233,-1426 69,-3078 19,-4563l-67 -5700c117,-2090 -53,-2775 -43,-4561l47 -3539 7636 -138c198,851 183,8366 174,10144 -8,1786 160,2471 44,4561 -56,1007 210,2426 48,3421zm-24754 37314c6548,6127 13515,8955 22415,8668 3379,-109 6998,-911 10300,-2331 8297,-3571 14045,-10033 16867,-18585 1693,-5131 1743,-11783 268,-16887l-877 -2708c-422,-952 -730,-1862 -1231,-2811 -1015,-1929 -2145,-3637 -3619,-5470 -1358,-1689 -3540,-4009 -5377,-5069 141,-870 -95,-5719 15,-6386 489,438 909,575 1396,892 5859,3791 11323,10235 13647,16744 825,2311 2136,6557 2222,9163 35,1091 264,1973 203,3072 -117,2103 -72,4062 -483,6175l-633 3100c-1112,4833 -3346,8595 -6086,12519 -352,505 -2259,2833 -2613,3133 -4286,3631 -4684,4704 -10476,7453 -3842,1824 -6715,2479 -10734,3048 -4646,658 -11182,5 -15449,-1595 -2193,-822 -4068,-1534 -6256,-2872 -497,-304 -979,-522 -1511,-862 -5900,-3770 -10710,-9840 -13288,-15775 -260,-597 -310,-826 -587,-1463 -1085,-2493 -2074,-7624 -2167,-10535 -195,-6138 919,-12660 4053,-18266 2550,-4561 5451,-8149 9612,-11334l3006 -2201c314,505 69,516 108,1594 19,522 175,4401 -10,4759 -185,357 -1056,877 -1442,1231 -567,520 -934,1058 -1551,1540 -518,408 -2426,2713 -2808,3270 -1635,2372 -2718,4300 -3668,6620 -2458,6005 -2631,13191 -884,19418 1237,4412 4315,9645 7633,12749zm56751 12264c2579,-2757 5092,-6183 6591,-8886 1365,-2461 2272,-4057 3270,-6609 1035,-2646 2093,-5969 2579,-8753l505 -3211c976,-8805 11,-16806 -3404,-24978 -2248,-5377 -4347,-8412 -7888,-12740l-3978 -4317c-855,-799 -1303,-981 -2112,-1753 -747,-715 -1403,-1188 -2226,-1771l-4434 -2974c-2285,-1425 -6151,-3192 -8803,-4060l-6559 -1741c-855,-177 -1358,-272 -2179,-367l-8685 -492c-780,24 -1240,166 -2046,183 -1240,28 -5329,685 -6469,957 -1423,339 -2885,667 -4298,1065 -2883,816 -5813,1943 -8560,3237 -8549,4028 -14580,9703 -19540,17642 -1994,3194 -3645,7550 -4669,10990 -894,3000 -1290,5749 -1621,8721 -80,721 -169,1467 -163,2173l-52 2169c-239,4536 618,10712 1899,15106l2158 6430c718,1785 2660,5655 3739,7403 2268,3671 3113,4407 5628,7455 574,697 1499,1435 2159,2215 3507,4139 11755,8833 17493,10517 4004,1175 6776,1784 10903,2057 783,52 1469,24 2170,94l6493 -233c1704,-275 2725,-227 5336,-746l5431 -1319c5199,-1512 10597,-4456 14910,-7746 2568,-1961 4084,-3218 6423,-5717zm-19785 -114080c1198,326 2332,693 3572,1060 679,203 1164,348 1843,547 8406,2467 16474,6235 23974,10900 6172,3838 12666,9680 17532,15707 1006,1246 1765,2274 2711,3561 7034,9550 13025,21378 14655,33159 50,363 127,587 192,905l989 10803 -30 5019c-2,207 -5,251 -7,456 -21,2496 -171,4809 -350,7311 -86,1179 -745,6678 -598,7319l3995 43c2404,-33 4808,-157 7185,-24l3077 -81c2732,153 5479,-26 8213,21 46,1 181,-3 228,-2l10034 -75c460,-7 505,33 914,65l4105 -23c2378,26 4820,-196 7186,-9 1025,81 2151,-102 3190,-57l12204 29c380,3 642,-23 1026,-36 1279,-44 2898,-164 4107,35 324,1391 -88,4748 -71,6389 6,536 -16,716 -80,1257l-1814 11580c-113,539 -173,901 -309,1378 -225,792 -471,1700 -645,2531 -192,922 -463,1710 -741,2647l-830 2537c-1966,6330 -4600,12396 -7621,18273l-5017 9062c-12810,21210 -30565,40475 -51175,53793 -3434,2218 -6813,4256 -10405,6037 -550,271 -1160,580 -1795,875l-14070 5631c-508,148 -1401,362 -1805,613 -165,-713 -126,-1388 -54,-2165 99,-1055 -58,-2136 -72,-3191l-45 -22238c28,-504 86,-611 71,-1143l-60 -6728c1331,-459 2838,-1184 4159,-1848 706,-355 1460,-762 2129,-1126l6263 -3733c2789,-1674 5738,-3791 8362,-5759 2264,-1700 6685,-5086 8438,-6866 1829,-1858 4289,-3769 5795,-5896 624,-882 3170,-3507 4747,-5746l7786 -11435c1596,-2669 5472,-8895 6289,-11499 -449,-73 -667,-32 -1142,-16l-20423 -242c-436,13 -711,39 -1140,24l-6049 -115c-1524,-86 -3253,110 -4790,23l-2397 -21c-3471,-21 -1939,-496 -4399,3278 -2568,3939 -6651,7592 -10194,10476 -3158,2569 -6760,4935 -10265,6828l-5153 2757c-4842,2358 -10252,4820 -15408,6463 -7032,2238 -4949,723 -5334,4780 -54,567 -11,932 11,1482l-15 11861c0,34 0,82 -2,115l51 9578c-84,2861 91,8820 -67,10837 -110,1396 108,4515 52,6157l-61 4564c24,587 34,1008 58,1595l-35 9239c19,534 56,955 54,1481l-30 24180c-111,2201 95,4409 28,6614 -33,1129 -186,7055 -24,7755 592,317 3525,209 4339,125 33,-3 80,-9 113,-13l796 -98c238,-24 322,-30 568,-39l2047 -182c7898,-367 20204,-3913 27736,-6207 3976,-1210 7948,-2609 11837,-4123 1255,-488 2617,-959 3941,-1560 4566,-2077 9290,-3749 13707,-6166 718,-393 1367,-763 2017,-1093 4842,-2457 11061,-6324 15651,-9485l11691 -8451c5442,-4153 10453,-8875 15517,-13463 1358,-1230 2470,-2879 3859,-3976 144,-112 287,-234 432,-361l2291 -2449c352,-432 670,-845 940,-1207 1028,-1379 3909,-4068 5431,-6110 417,-560 1175,-1549 1594,-2106 2076,-2759 4295,-5342 6207,-8189 5495,-8180 7613,-11356 12388,-20369l4745 -10079c2472,-5965 5045,-12047 6788,-18245l289 -922c1008,-2974 1725,-6027 2483,-9093 1151,-4661 2168,-9400 2950,-14125 449,-2710 899,-5296 1184,-8024 665,-6316 1412,-12636 1570,-18984l113 -6960c-32,-845 -13,-1207 34,-2054 95,-1711 -110,-5324 -183,-7408 -45,-1268 -11,-3462 -264,-4553 -853,199 -4922,-13 -6157,33 -672,24 -1413,95 -2052,45 -824,-65 -1227,-50 -2052,-24 -844,30 -1208,13 -2056,-33 -661,-39 -1370,33 -2050,56l-2054 -51c-2404,34 -4808,158 -7185,24 -2755,-153 -7308,190 -10261,101 -458,-15 -555,-78 -1030,-80l-6155 93c-473,-2 -572,-67 -1028,-80 -2196,-67 -4409,182 -6614,67 -33,-2 -82,-4 -115,-6l-3535 2c-141,-7 -88,-6 -229,-15l-799 -20c-732,13 -1321,78 -2050,61 -257,-6 -200,-7 -458,-22l-9919 89c-1138,-4888 -2523,-9753 -3896,-14584 -233,-823 -347,-1326 -613,-2148 -458,-1421 -788,-2743 -1252,-4177l-2970 -8344c-1773,-4375 -3625,-8360 -6144,-12569 -1708,-2851 -3553,-5708 -5572,-8369 -6816,-8988 -15226,-18078 -24504,-25214 -2229,-1715 -4499,-3360 -6658,-4727 -3153,-1992 -6352,-3724 -9757,-5227 -4231,-1866 -3382,-600 -3486,-3622l-67 -5471c144,-4801 100,-9684 -34,-14484l8 -4449c80,-840 30,-1350 4,-2168l59 -6730c302,175 7697,2616 9466,3421 3298,1499 6414,2820 9621,4602 1614,898 3272,1683 4765,2654 697,455 976,606 1628,978 4514,2570 8538,5489 12829,8479 7373,5133 17299,13625 22883,20497 2732,3360 5418,6544 7960,10001l8853 13392c1963,3283 3674,6780 5481,10084l1583 3369c989,2194 1779,4728 2700,6753 1114,2449 1983,4443 4865,5103 1363,313 2836,428 4236,469 2466,69 4950,-229 7409,-117l1711 11c32,0 80,-4 113,-4 2818,-67 5885,-384 8663,-164 418,34 708,2 1138,-13 1272,-46 3026,-212 4218,-117 914,72 3490,231 4213,-220 -428,-683 -495,-1913 -684,-2713 -1486,-6324 -3293,-10368 -5620,-16353 -1656,-4255 -5090,-11386 -7185,-15044l-2224 -4032c-478,-777 -1076,-1860 -1536,-2688l-3365 -5477c-372,-536 -519,-864 -821,-1341 -290,-458 -601,-847 -918,-1339 -544,-844 -1268,-1734 -1868,-2674 -1252,-1965 -2590,-3608 -3905,-5459 -2041,-2872 -4064,-5378 -6407,-8114 -682,-797 -1547,-1890 -2221,-2663l-6107 -6642c-497,-467 -1050,-912 -1477,-1434 -1425,-1753 -3757,-3693 -5606,-5405 -974,-899 -1521,-1648 -2596,-2650 -5332,-4983 -10120,-8993 -15830,-12951 -4104,-2844 -8462,-5665 -12814,-8067 -2112,-1164 -4226,-2460 -6393,-3574l-15884 -7738 -7982 -3326c-508,-211 -1004,-376 -1616,-630 -3032,-1253 -6304,-2288 -9464,-3290 -348,-110 -456,-179 -808,-298l-3917 -1173c-629,-214 -956,-214 -1609,-410l-4717 -1216c-5578,-1499 -11710,-2287 -17426,-2688 -1510,-106 -5232,71 -6276,-100l-52 1257c0,34 2,80 0,113l-43 7872c17,1146 108,1922 17,3079l80 33870c20,589 35,1009 60,1594l-37 9239c22,585 45,1015 60,1596l-41 1141c-2,34 0,80 0,113l88 17219c10,607 -89,866 -72,1484l54 13913c-151,1587 242,4781 -2,6273z"/>
 </g>
</svg>
