<svg width="50" height="70" viewBox="0 0 50 70" fill="none" xmlns="http://www.w3.org/2000/svg">
<path fill-rule="evenodd" clip-rule="evenodd" d="M17.8993 55.7832C19.1564 55.7845 19.353 56.2492 19.3508 57.3665C19.3462 59.8964 19.7222 61.2446 17.8959 61.2641C17.0623 61.273 16.2754 61.2731 15.4219 61.2675C14.2226 61.2599 13.8954 60.8181 13.8921 59.7422C13.8778 55.2428 13.5507 55.7785 17.8993 55.7832ZM25.5127 55.7698C26.7832 55.7683 26.9778 56.263 26.9688 57.3264C26.9465 59.9986 27.3696 61.2293 25.5159 61.2586C22.8341 61.3011 21.5142 61.6162 21.5145 59.723C21.5151 55.2662 21.1449 55.775 25.5127 55.7698ZM33.137 55.7697C34.3811 55.778 34.5954 56.2104 34.5954 57.3047C34.5955 59.8569 34.9626 61.2281 33.1254 61.2518C30.3259 61.2884 29.1307 61.6136 29.1367 59.6721C29.1391 58.849 29.1203 57.9994 29.1399 57.1758C29.1831 55.3371 30.5462 55.7528 33.137 55.7697ZM18.1205 48.1019C19.2274 48.1106 19.384 48.6911 19.3781 49.6791C19.3608 52.5192 19.7625 53.5565 17.7413 53.5733C14.6643 53.5984 13.9097 53.915 13.9247 51.8656C13.9557 47.6358 13.434 48.0648 18.1205 48.1019ZM25.4472 48.0902C26.72 48.0921 26.9968 48.4149 26.9996 49.5424C27.0056 52.167 27.3648 53.5276 25.6301 53.5646C22.7906 53.6247 21.558 53.9005 21.5401 52.1311C21.4936 47.4867 21.3292 48.0841 25.4472 48.0902ZM33.155 48.0837C34.3614 48.0805 34.6231 48.5371 34.6272 49.5787C34.6309 50.4572 34.6283 51.2834 34.614 52.1111C34.5944 53.2418 34.1481 53.5473 33.1467 53.5589C28.8138 53.6097 29.0864 54.0252 29.1705 49.4889C29.2059 47.5865 30.6811 48.0901 33.155 48.0837ZM18.121 40.4093C19.2118 40.4176 19.4137 41.0249 19.4043 41.9931C19.3778 44.7356 19.8099 45.8687 17.8276 45.8797C14.9321 45.8958 13.9385 46.2776 13.9544 44.258C13.9882 39.9304 13.4681 40.3738 18.121 40.4093ZM25.8212 40.4002C26.8476 40.4291 27.0383 41.0932 27.0303 42.0353C27.0058 44.9748 27.4251 45.8773 25.3443 45.8758C22.4571 45.8734 21.5536 46.288 21.5737 44.1429C21.5809 43.3859 21.5291 42.3807 21.5765 41.6635C21.6549 40.4806 22.3295 40.3769 23.2986 40.3794C24.1592 40.3815 24.9755 40.3761 25.8212 40.4002ZM33.2312 40.3832C34.4172 40.3812 34.6595 40.9107 34.6467 42.0233C34.6182 44.4446 35.0896 45.8784 33.0647 45.871C30.0724 45.8602 29.1924 46.274 29.1999 44.1794C29.2158 39.882 28.7528 40.3911 33.2312 40.3832ZM33.4149 16.2258C34.7008 16.2329 34.7478 16.9473 34.7385 18.0132L34.6704 36.3532C34.678 37.5451 34.4617 38.1528 33.3357 38.1752L25.5991 38.175C23.9441 38.1735 22.1418 38.1878 20.4036 38.1871C13.1828 38.1842 13.9639 39.1145 13.9909 33.7935L14.0483 18.035C14.0269 15.7502 15.0914 16.2201 17.8769 16.2158L33.4149 16.2258ZM29.8153 12.9013C26.8289 12.9614 23.7544 12.9386 20.7498 12.9188C19.2023 12.9087 17.8003 12.9145 16.2451 12.9175C14.4136 12.9208 13.3331 12.8451 12.2647 13.9319C11.1287 15.0876 11.3268 16.7151 11.3284 18.2579L11.1676 59.6024C11.155 61.3875 11.0727 62.5519 12.1392 63.6053C13.3205 64.7723 14.9452 64.5551 16.512 64.5578C19.5283 64.5625 22.5411 64.5445 25.5834 64.5496C27.1267 64.5522 28.5564 64.5495 30.0995 64.5503C32.708 64.5518 36.8781 65.3158 37.2781 61.5265C37.4152 60.2275 37.3134 58.2588 37.3181 56.8863L37.4536 20.1228C37.468 16.5679 38.2461 13.5763 34.2071 12.8765C34.2287 11.7983 34.3949 6.26303 34.0459 5.40917C33.4304 3.90389 31.1764 3.6373 30.2397 5.11408C29.4386 6.37746 30.1955 10.8023 29.8153 12.9013Z" fill="#0B152D"/>
</svg>
