<svg width="50" height="70" viewBox="0 0 50 70" fill="none" xmlns="http://www.w3.org/2000/svg">
<path fill-rule="evenodd" clip-rule="evenodd" d="M17.3603 55.7441C18.6173 55.7454 18.814 56.2101 18.8117 57.3275C18.8071 59.8573 19.1832 61.2056 17.3568 61.225C16.5232 61.234 15.7363 61.234 14.8828 61.2285C13.6835 61.2208 13.3564 60.779 13.353 59.7032C13.3387 55.2038 13.0116 55.7394 17.3603 55.7441ZM24.9736 55.7307C26.2441 55.7292 26.4387 56.2239 26.4297 57.2873C26.4074 59.9595 26.8305 61.1902 24.9768 61.2195C22.2951 61.262 20.9752 61.5771 20.9754 59.6839C20.976 55.2271 20.6059 55.7359 24.9736 55.7307ZM32.598 55.7306C33.842 55.7389 34.0563 56.1713 34.0564 57.2656C34.0564 59.8179 34.4236 61.189 32.5863 61.2127C29.7868 61.2493 28.5916 61.5745 28.5977 59.633C28.6001 58.81 28.5812 57.9603 28.6008 57.1367C28.644 55.298 30.0071 55.7137 32.598 55.7306ZM17.5815 48.0629C18.6884 48.0716 18.845 48.652 18.8391 49.64C18.8218 52.4801 19.2235 53.5175 17.2022 53.5342C14.1252 53.5593 13.3707 53.8759 13.3857 51.8265C13.4166 47.5968 12.8949 48.0257 17.5815 48.0629ZM24.9081 48.0511C26.181 48.053 26.4577 48.3758 26.4605 49.5033C26.4666 52.1279 26.8257 53.4885 25.0911 53.5255C22.2516 53.5856 21.0189 53.8614 21.001 52.0921C20.9546 47.4476 20.7901 48.045 24.9081 48.0511ZM32.6159 48.0447C33.8223 48.0414 34.084 48.498 34.0881 49.5396C34.0919 50.4181 34.0893 51.2443 34.075 52.072C34.0553 53.2027 33.609 53.5083 32.6076 53.5198C28.2748 53.5706 28.5474 53.9861 28.6315 49.4498C28.6668 47.5475 30.142 48.0511 32.6159 48.0447ZM17.5819 40.3702C18.6727 40.3785 18.8747 40.9858 18.8653 41.954C18.8388 44.6965 19.2708 45.8296 17.2885 45.8407C14.393 45.8567 13.3995 46.2385 13.4153 44.2189C13.4491 39.8913 12.9291 40.3347 17.5819 40.3702ZM25.2821 40.3611C26.3086 40.39 26.4992 41.0541 26.4912 41.9963C26.4667 44.9358 26.886 45.8383 24.8052 45.8368C21.918 45.8344 21.0145 46.2489 21.0347 44.1038C21.0418 43.3468 20.9901 42.3416 21.0375 41.6244C21.1159 40.4415 21.7905 40.3378 22.7595 40.3404C23.6201 40.3424 24.4364 40.3371 25.2821 40.3611ZM32.6922 40.3442C33.8781 40.3421 34.1204 40.8717 34.1077 41.9842C34.0792 44.4055 34.5505 45.8394 32.5257 45.832C29.5333 45.8212 28.6533 46.235 28.6609 44.1403C28.6767 39.8429 28.2138 40.352 32.6922 40.3442ZM32.8759 16.1868C34.1617 16.1938 34.2088 16.9082 34.1994 17.9742L34.1314 36.3142C34.139 37.506 33.9226 38.1137 32.7966 38.1362L25.0601 38.136C23.405 38.1344 21.6027 38.1487 19.8645 38.148C12.6437 38.1451 13.4248 39.0754 13.4518 33.7544L13.5092 17.996C13.4879 15.7111 14.5523 16.181 17.3379 16.1767L32.8759 16.1868ZM29.2763 12.8622C26.2898 12.9224 23.2154 12.8995 20.2107 12.8798C18.6632 12.8696 17.2612 12.8755 15.7061 12.8785C13.8745 12.8817 12.7941 12.8061 11.7256 13.8928C10.5897 15.0486 10.7877 16.676 10.7894 18.2188L10.6285 59.5634C10.6159 61.3484 10.5337 62.5128 11.6002 63.5663C12.7815 64.7333 14.4061 64.5161 15.973 64.5188C18.9892 64.5234 22.002 64.5054 25.0443 64.5106C26.5876 64.5131 28.0173 64.5104 29.5605 64.5112C32.1689 64.5127 36.339 65.2767 36.739 61.4875C36.8761 60.1884 36.7743 58.2198 36.7791 56.8472L36.9145 20.0837C36.929 16.5289 37.707 13.5372 33.668 12.8375C33.6897 11.7592 33.8558 6.22396 33.5068 5.37011C32.8913 3.86483 30.6374 3.59824 29.7006 5.07502C28.8995 6.3384 29.6564 10.7632 29.2763 12.8622Z" fill="white"/>
</svg>
